G75*
G70*
%OFA0B0*%
%FSLAX24Y24*%
%IPPOS*%
%LPD*%
%AMOC8*
5,1,8,0,0,1.08239X$1,22.5*
%
%ADD10C,0.0000*%
D10*
X006007Y000888D02*
X006007Y010337D01*
X006009Y010391D01*
X006014Y010444D01*
X006023Y010497D01*
X006036Y010549D01*
X006052Y010601D01*
X006072Y010651D01*
X006095Y010699D01*
X006122Y010746D01*
X006151Y010791D01*
X006184Y010834D01*
X006219Y010874D01*
X006257Y010912D01*
X006297Y010947D01*
X006340Y010980D01*
X006385Y011009D01*
X006432Y011036D01*
X006480Y011059D01*
X006530Y011079D01*
X006582Y011095D01*
X006634Y011108D01*
X006687Y011117D01*
X006740Y011122D01*
X006794Y011124D01*
X021755Y011124D01*
X021809Y011122D01*
X021862Y011117D01*
X021915Y011108D01*
X021967Y011095D01*
X022019Y011079D01*
X022069Y011059D01*
X022117Y011036D01*
X022164Y011009D01*
X022209Y010980D01*
X022252Y010947D01*
X022292Y010912D01*
X022330Y010874D01*
X022365Y010834D01*
X022398Y010791D01*
X022427Y010746D01*
X022454Y010699D01*
X022477Y010651D01*
X022497Y010601D01*
X022513Y010549D01*
X022526Y010497D01*
X022535Y010444D01*
X022540Y010391D01*
X022542Y010337D01*
X022542Y000888D01*
X022540Y000834D01*
X022535Y000781D01*
X022526Y000728D01*
X022513Y000676D01*
X022497Y000624D01*
X022477Y000574D01*
X022454Y000526D01*
X022427Y000479D01*
X022398Y000434D01*
X022365Y000391D01*
X022330Y000351D01*
X022292Y000313D01*
X022252Y000278D01*
X022209Y000245D01*
X022164Y000216D01*
X022117Y000189D01*
X022069Y000166D01*
X022019Y000146D01*
X021967Y000130D01*
X021915Y000117D01*
X021862Y000108D01*
X021809Y000103D01*
X021755Y000101D01*
X006794Y000101D01*
X006740Y000103D01*
X006687Y000108D01*
X006634Y000117D01*
X006582Y000130D01*
X006530Y000146D01*
X006480Y000166D01*
X006432Y000189D01*
X006385Y000216D01*
X006340Y000245D01*
X006297Y000278D01*
X006257Y000313D01*
X006219Y000351D01*
X006184Y000391D01*
X006151Y000434D01*
X006122Y000479D01*
X006095Y000526D01*
X006072Y000574D01*
X006052Y000624D01*
X006036Y000676D01*
X006023Y000728D01*
X006014Y000781D01*
X006009Y000834D01*
X006007Y000888D01*
X006528Y001085D02*
X006530Y001128D01*
X006536Y001170D01*
X006546Y001212D01*
X006559Y001252D01*
X006577Y001291D01*
X006597Y001329D01*
X006622Y001364D01*
X006649Y001397D01*
X006679Y001427D01*
X006712Y001454D01*
X006747Y001479D01*
X006785Y001499D01*
X006824Y001517D01*
X006864Y001530D01*
X006906Y001540D01*
X006948Y001546D01*
X006991Y001548D01*
X007034Y001546D01*
X007076Y001540D01*
X007118Y001530D01*
X007158Y001517D01*
X007197Y001499D01*
X007235Y001479D01*
X007270Y001454D01*
X007303Y001427D01*
X007333Y001397D01*
X007360Y001364D01*
X007385Y001329D01*
X007405Y001291D01*
X007423Y001252D01*
X007436Y001212D01*
X007446Y001170D01*
X007452Y001128D01*
X007454Y001085D01*
X007452Y001042D01*
X007446Y001000D01*
X007436Y000958D01*
X007423Y000918D01*
X007405Y000879D01*
X007385Y000841D01*
X007360Y000806D01*
X007333Y000773D01*
X007303Y000743D01*
X007270Y000716D01*
X007235Y000691D01*
X007197Y000671D01*
X007158Y000653D01*
X007118Y000640D01*
X007076Y000630D01*
X007034Y000624D01*
X006991Y000622D01*
X006948Y000624D01*
X006906Y000630D01*
X006864Y000640D01*
X006824Y000653D01*
X006785Y000671D01*
X006747Y000691D01*
X006712Y000716D01*
X006679Y000743D01*
X006649Y000773D01*
X006622Y000806D01*
X006597Y000841D01*
X006577Y000879D01*
X006559Y000918D01*
X006546Y000958D01*
X006536Y001000D01*
X006530Y001042D01*
X006528Y001085D01*
X006440Y003644D02*
X006442Y003691D01*
X006448Y003737D01*
X006458Y003783D01*
X006471Y003828D01*
X006489Y003871D01*
X006510Y003913D01*
X006534Y003953D01*
X006562Y003990D01*
X006593Y004025D01*
X006627Y004058D01*
X006663Y004087D01*
X006702Y004113D01*
X006743Y004136D01*
X006786Y004155D01*
X006830Y004171D01*
X006875Y004183D01*
X006921Y004191D01*
X006968Y004195D01*
X007014Y004195D01*
X007061Y004191D01*
X007107Y004183D01*
X007152Y004171D01*
X007196Y004155D01*
X007239Y004136D01*
X007280Y004113D01*
X007319Y004087D01*
X007355Y004058D01*
X007389Y004025D01*
X007420Y003990D01*
X007448Y003953D01*
X007472Y003913D01*
X007493Y003871D01*
X007511Y003828D01*
X007524Y003783D01*
X007534Y003737D01*
X007540Y003691D01*
X007542Y003644D01*
X007540Y003597D01*
X007534Y003551D01*
X007524Y003505D01*
X007511Y003460D01*
X007493Y003417D01*
X007472Y003375D01*
X007448Y003335D01*
X007420Y003298D01*
X007389Y003263D01*
X007355Y003230D01*
X007319Y003201D01*
X007280Y003175D01*
X007239Y003152D01*
X007196Y003133D01*
X007152Y003117D01*
X007107Y003105D01*
X007061Y003097D01*
X007014Y003093D01*
X006968Y003093D01*
X006921Y003097D01*
X006875Y003105D01*
X006830Y003117D01*
X006786Y003133D01*
X006743Y003152D01*
X006702Y003175D01*
X006663Y003201D01*
X006627Y003230D01*
X006593Y003263D01*
X006562Y003298D01*
X006534Y003335D01*
X006510Y003375D01*
X006489Y003417D01*
X006471Y003460D01*
X006458Y003505D01*
X006448Y003551D01*
X006442Y003597D01*
X006440Y003644D01*
X012346Y003644D02*
X012348Y003691D01*
X012354Y003737D01*
X012364Y003783D01*
X012377Y003828D01*
X012395Y003871D01*
X012416Y003913D01*
X012440Y003953D01*
X012468Y003990D01*
X012499Y004025D01*
X012533Y004058D01*
X012569Y004087D01*
X012608Y004113D01*
X012649Y004136D01*
X012692Y004155D01*
X012736Y004171D01*
X012781Y004183D01*
X012827Y004191D01*
X012874Y004195D01*
X012920Y004195D01*
X012967Y004191D01*
X013013Y004183D01*
X013058Y004171D01*
X013102Y004155D01*
X013145Y004136D01*
X013186Y004113D01*
X013225Y004087D01*
X013261Y004058D01*
X013295Y004025D01*
X013326Y003990D01*
X013354Y003953D01*
X013378Y003913D01*
X013399Y003871D01*
X013417Y003828D01*
X013430Y003783D01*
X013440Y003737D01*
X013446Y003691D01*
X013448Y003644D01*
X013446Y003597D01*
X013440Y003551D01*
X013430Y003505D01*
X013417Y003460D01*
X013399Y003417D01*
X013378Y003375D01*
X013354Y003335D01*
X013326Y003298D01*
X013295Y003263D01*
X013261Y003230D01*
X013225Y003201D01*
X013186Y003175D01*
X013145Y003152D01*
X013102Y003133D01*
X013058Y003117D01*
X013013Y003105D01*
X012967Y003097D01*
X012920Y003093D01*
X012874Y003093D01*
X012827Y003097D01*
X012781Y003105D01*
X012736Y003117D01*
X012692Y003133D01*
X012649Y003152D01*
X012608Y003175D01*
X012569Y003201D01*
X012533Y003230D01*
X012499Y003263D01*
X012468Y003298D01*
X012440Y003335D01*
X012416Y003375D01*
X012395Y003417D01*
X012377Y003460D01*
X012364Y003505D01*
X012354Y003551D01*
X012348Y003597D01*
X012346Y003644D01*
X012434Y001085D02*
X012436Y001128D01*
X012442Y001170D01*
X012452Y001212D01*
X012465Y001252D01*
X012483Y001291D01*
X012503Y001329D01*
X012528Y001364D01*
X012555Y001397D01*
X012585Y001427D01*
X012618Y001454D01*
X012653Y001479D01*
X012691Y001499D01*
X012730Y001517D01*
X012770Y001530D01*
X012812Y001540D01*
X012854Y001546D01*
X012897Y001548D01*
X012940Y001546D01*
X012982Y001540D01*
X013024Y001530D01*
X013064Y001517D01*
X013103Y001499D01*
X013141Y001479D01*
X013176Y001454D01*
X013209Y001427D01*
X013239Y001397D01*
X013266Y001364D01*
X013291Y001329D01*
X013311Y001291D01*
X013329Y001252D01*
X013342Y001212D01*
X013352Y001170D01*
X013358Y001128D01*
X013360Y001085D01*
X013358Y001042D01*
X013352Y001000D01*
X013342Y000958D01*
X013329Y000918D01*
X013311Y000879D01*
X013291Y000841D01*
X013266Y000806D01*
X013239Y000773D01*
X013209Y000743D01*
X013176Y000716D01*
X013141Y000691D01*
X013103Y000671D01*
X013064Y000653D01*
X013024Y000640D01*
X012982Y000630D01*
X012940Y000624D01*
X012897Y000622D01*
X012854Y000624D01*
X012812Y000630D01*
X012770Y000640D01*
X012730Y000653D01*
X012691Y000671D01*
X012653Y000691D01*
X012618Y000716D01*
X012585Y000743D01*
X012555Y000773D01*
X012528Y000806D01*
X012503Y000841D01*
X012483Y000879D01*
X012465Y000918D01*
X012452Y000958D01*
X012442Y001000D01*
X012436Y001042D01*
X012434Y001085D01*
X015190Y001085D02*
X015192Y001128D01*
X015198Y001170D01*
X015208Y001212D01*
X015221Y001252D01*
X015239Y001291D01*
X015259Y001329D01*
X015284Y001364D01*
X015311Y001397D01*
X015341Y001427D01*
X015374Y001454D01*
X015409Y001479D01*
X015447Y001499D01*
X015486Y001517D01*
X015526Y001530D01*
X015568Y001540D01*
X015610Y001546D01*
X015653Y001548D01*
X015696Y001546D01*
X015738Y001540D01*
X015780Y001530D01*
X015820Y001517D01*
X015859Y001499D01*
X015897Y001479D01*
X015932Y001454D01*
X015965Y001427D01*
X015995Y001397D01*
X016022Y001364D01*
X016047Y001329D01*
X016067Y001291D01*
X016085Y001252D01*
X016098Y001212D01*
X016108Y001170D01*
X016114Y001128D01*
X016116Y001085D01*
X016114Y001042D01*
X016108Y001000D01*
X016098Y000958D01*
X016085Y000918D01*
X016067Y000879D01*
X016047Y000841D01*
X016022Y000806D01*
X015995Y000773D01*
X015965Y000743D01*
X015932Y000716D01*
X015897Y000691D01*
X015859Y000671D01*
X015820Y000653D01*
X015780Y000640D01*
X015738Y000630D01*
X015696Y000624D01*
X015653Y000622D01*
X015610Y000624D01*
X015568Y000630D01*
X015526Y000640D01*
X015486Y000653D01*
X015447Y000671D01*
X015409Y000691D01*
X015374Y000716D01*
X015341Y000743D01*
X015311Y000773D01*
X015284Y000806D01*
X015259Y000841D01*
X015239Y000879D01*
X015221Y000918D01*
X015208Y000958D01*
X015198Y001000D01*
X015192Y001042D01*
X015190Y001085D01*
X015102Y003644D02*
X015104Y003691D01*
X015110Y003737D01*
X015120Y003783D01*
X015133Y003828D01*
X015151Y003871D01*
X015172Y003913D01*
X015196Y003953D01*
X015224Y003990D01*
X015255Y004025D01*
X015289Y004058D01*
X015325Y004087D01*
X015364Y004113D01*
X015405Y004136D01*
X015448Y004155D01*
X015492Y004171D01*
X015537Y004183D01*
X015583Y004191D01*
X015630Y004195D01*
X015676Y004195D01*
X015723Y004191D01*
X015769Y004183D01*
X015814Y004171D01*
X015858Y004155D01*
X015901Y004136D01*
X015942Y004113D01*
X015981Y004087D01*
X016017Y004058D01*
X016051Y004025D01*
X016082Y003990D01*
X016110Y003953D01*
X016134Y003913D01*
X016155Y003871D01*
X016173Y003828D01*
X016186Y003783D01*
X016196Y003737D01*
X016202Y003691D01*
X016204Y003644D01*
X016202Y003597D01*
X016196Y003551D01*
X016186Y003505D01*
X016173Y003460D01*
X016155Y003417D01*
X016134Y003375D01*
X016110Y003335D01*
X016082Y003298D01*
X016051Y003263D01*
X016017Y003230D01*
X015981Y003201D01*
X015942Y003175D01*
X015901Y003152D01*
X015858Y003133D01*
X015814Y003117D01*
X015769Y003105D01*
X015723Y003097D01*
X015676Y003093D01*
X015630Y003093D01*
X015583Y003097D01*
X015537Y003105D01*
X015492Y003117D01*
X015448Y003133D01*
X015405Y003152D01*
X015364Y003175D01*
X015325Y003201D01*
X015289Y003230D01*
X015255Y003263D01*
X015224Y003298D01*
X015196Y003335D01*
X015172Y003375D01*
X015151Y003417D01*
X015133Y003460D01*
X015120Y003505D01*
X015110Y003551D01*
X015104Y003597D01*
X015102Y003644D01*
X021007Y003644D02*
X021009Y003691D01*
X021015Y003737D01*
X021025Y003783D01*
X021038Y003828D01*
X021056Y003871D01*
X021077Y003913D01*
X021101Y003953D01*
X021129Y003990D01*
X021160Y004025D01*
X021194Y004058D01*
X021230Y004087D01*
X021269Y004113D01*
X021310Y004136D01*
X021353Y004155D01*
X021397Y004171D01*
X021442Y004183D01*
X021488Y004191D01*
X021535Y004195D01*
X021581Y004195D01*
X021628Y004191D01*
X021674Y004183D01*
X021719Y004171D01*
X021763Y004155D01*
X021806Y004136D01*
X021847Y004113D01*
X021886Y004087D01*
X021922Y004058D01*
X021956Y004025D01*
X021987Y003990D01*
X022015Y003953D01*
X022039Y003913D01*
X022060Y003871D01*
X022078Y003828D01*
X022091Y003783D01*
X022101Y003737D01*
X022107Y003691D01*
X022109Y003644D01*
X022107Y003597D01*
X022101Y003551D01*
X022091Y003505D01*
X022078Y003460D01*
X022060Y003417D01*
X022039Y003375D01*
X022015Y003335D01*
X021987Y003298D01*
X021956Y003263D01*
X021922Y003230D01*
X021886Y003201D01*
X021847Y003175D01*
X021806Y003152D01*
X021763Y003133D01*
X021719Y003117D01*
X021674Y003105D01*
X021628Y003097D01*
X021581Y003093D01*
X021535Y003093D01*
X021488Y003097D01*
X021442Y003105D01*
X021397Y003117D01*
X021353Y003133D01*
X021310Y003152D01*
X021269Y003175D01*
X021230Y003201D01*
X021194Y003230D01*
X021160Y003263D01*
X021129Y003298D01*
X021101Y003335D01*
X021077Y003375D01*
X021056Y003417D01*
X021038Y003460D01*
X021025Y003505D01*
X021015Y003551D01*
X021009Y003597D01*
X021007Y003644D01*
X021095Y001085D02*
X021097Y001128D01*
X021103Y001170D01*
X021113Y001212D01*
X021126Y001252D01*
X021144Y001291D01*
X021164Y001329D01*
X021189Y001364D01*
X021216Y001397D01*
X021246Y001427D01*
X021279Y001454D01*
X021314Y001479D01*
X021352Y001499D01*
X021391Y001517D01*
X021431Y001530D01*
X021473Y001540D01*
X021515Y001546D01*
X021558Y001548D01*
X021601Y001546D01*
X021643Y001540D01*
X021685Y001530D01*
X021725Y001517D01*
X021764Y001499D01*
X021802Y001479D01*
X021837Y001454D01*
X021870Y001427D01*
X021900Y001397D01*
X021927Y001364D01*
X021952Y001329D01*
X021972Y001291D01*
X021990Y001252D01*
X022003Y001212D01*
X022013Y001170D01*
X022019Y001128D01*
X022021Y001085D01*
X022019Y001042D01*
X022013Y001000D01*
X022003Y000958D01*
X021990Y000918D01*
X021972Y000879D01*
X021952Y000841D01*
X021927Y000806D01*
X021900Y000773D01*
X021870Y000743D01*
X021837Y000716D01*
X021802Y000691D01*
X021764Y000671D01*
X021725Y000653D01*
X021685Y000640D01*
X021643Y000630D01*
X021601Y000624D01*
X021558Y000622D01*
X021515Y000624D01*
X021473Y000630D01*
X021431Y000640D01*
X021391Y000653D01*
X021352Y000671D01*
X021314Y000691D01*
X021279Y000716D01*
X021246Y000743D01*
X021216Y000773D01*
X021189Y000806D01*
X021164Y000841D01*
X021144Y000879D01*
X021126Y000918D01*
X021113Y000958D01*
X021103Y001000D01*
X021097Y001042D01*
X021095Y001085D01*
M02*
