G75*
G70*
%OFA0B0*%
%FSLAX24Y24*%
%IPPOS*%
%LPD*%
%AMOC8*
5,1,8,0,0,1.08239X$1,22.5*
%
%ADD10C,0.0709*%
%ADD11C,0.0768*%
%ADD12R,0.0500X0.1150*%
%ADD13R,0.1350X0.0650*%
%ADD14C,0.0320*%
%ADD15C,0.0376*%
%ADD16C,0.0160*%
D10*
X009248Y002948D03*
X009944Y003644D03*
X010640Y004340D03*
X009248Y004340D03*
X010640Y002948D03*
X017909Y002948D03*
X018605Y003644D03*
X017909Y004340D03*
X019301Y004340D03*
X019301Y002948D03*
D11*
X018605Y000613D03*
X009944Y000613D03*
D12*
X009944Y005573D03*
X008763Y005573D03*
X008763Y007396D03*
X009944Y007396D03*
X011125Y007396D03*
X011125Y005573D03*
X017424Y005573D03*
X018605Y005573D03*
X019786Y005573D03*
X019786Y007396D03*
X018605Y007396D03*
X017424Y007396D03*
D13*
X015895Y009550D03*
X012654Y009550D03*
X007234Y009550D03*
X021315Y009550D03*
D14*
X019786Y008369D02*
X019786Y007396D01*
X019786Y008369D02*
X019393Y008762D01*
X018605Y008369D02*
X018212Y008762D01*
X016637Y008762D01*
X016243Y008369D01*
X016243Y006400D01*
X016637Y006006D01*
X017424Y006006D01*
X017424Y005573D01*
X017424Y005219D01*
X017031Y004825D01*
X017031Y003250D01*
X016243Y002463D01*
X011912Y002463D01*
X011519Y002069D01*
X009944Y002069D01*
X009157Y002857D01*
X009248Y002948D01*
X009157Y002857D02*
X008763Y002857D01*
X008369Y003250D01*
X008369Y004825D01*
X008763Y005219D01*
X008763Y005573D01*
X008763Y006006D01*
X007975Y006006D01*
X007582Y006400D01*
X007582Y008369D01*
X007975Y008762D01*
X009550Y008762D01*
X009944Y008369D01*
X009944Y007396D01*
X009944Y007187D01*
X011125Y007396D02*
X011125Y008369D01*
X010731Y008762D01*
X011125Y005573D02*
X011125Y005219D01*
X011519Y004825D01*
X011519Y003827D01*
X010640Y002948D01*
X009944Y003644D02*
X009944Y005573D01*
X017031Y003250D02*
X017424Y002857D01*
X017818Y002857D01*
X017909Y002948D01*
X018605Y003644D02*
X018605Y005573D01*
X019786Y005573D02*
X019786Y005219D01*
X020180Y004825D01*
X020180Y003827D01*
X019301Y002948D01*
X018605Y007396D02*
X018605Y008369D01*
D15*
X019393Y008762D03*
X010731Y008762D03*
D16*
X006401Y003116D02*
X006401Y001488D01*
X006593Y001681D01*
X006851Y001788D01*
X007131Y001788D01*
X007389Y001681D01*
X007587Y001483D01*
X007694Y001225D01*
X007694Y000945D01*
X007587Y000687D01*
X007394Y000494D01*
X009392Y000494D01*
X009381Y000565D01*
X009896Y000565D01*
X009896Y000661D01*
X009896Y001176D01*
X009812Y001163D01*
X009727Y001135D01*
X009648Y001095D01*
X009577Y001043D01*
X009514Y000980D01*
X009462Y000908D01*
X009421Y000829D01*
X009394Y000745D01*
X009381Y000661D01*
X009896Y000661D01*
X009992Y000661D01*
X009992Y001176D01*
X010076Y001163D01*
X010160Y001135D01*
X010239Y001095D01*
X010311Y001043D01*
X010374Y000980D01*
X010426Y000908D01*
X010466Y000829D01*
X010494Y000745D01*
X010507Y000661D01*
X009992Y000661D01*
X009992Y000565D01*
X010507Y000565D01*
X010496Y000494D01*
X012494Y000494D01*
X012301Y000687D01*
X012194Y000945D01*
X012194Y001225D01*
X012301Y001483D01*
X012499Y001681D01*
X012757Y001788D01*
X013036Y001788D01*
X013295Y001681D01*
X013492Y001483D01*
X013599Y001225D01*
X013599Y000945D01*
X013492Y000687D01*
X013300Y000494D01*
X015250Y000494D01*
X015057Y000687D01*
X014950Y000945D01*
X014950Y001225D01*
X015057Y001483D01*
X015255Y001681D01*
X015513Y001788D01*
X015792Y001788D01*
X016051Y001681D01*
X016248Y001483D01*
X016355Y001225D01*
X016355Y000945D01*
X016248Y000687D01*
X016056Y000494D01*
X018053Y000494D01*
X018042Y000565D01*
X018557Y000565D01*
X018557Y000661D01*
X018557Y001176D01*
X018473Y001163D01*
X018389Y001135D01*
X018310Y001095D01*
X018238Y001043D01*
X018175Y000980D01*
X018123Y000908D01*
X018083Y000829D01*
X018055Y000745D01*
X018042Y000661D01*
X018557Y000661D01*
X018653Y000661D01*
X018653Y001176D01*
X018737Y001163D01*
X018822Y001135D01*
X018901Y001095D01*
X018973Y001043D01*
X019035Y000980D01*
X019088Y000908D01*
X019128Y000829D01*
X019155Y000745D01*
X019169Y000661D01*
X018654Y000661D01*
X018654Y000565D01*
X019169Y000565D01*
X019157Y000494D01*
X021155Y000494D01*
X020962Y000687D01*
X020856Y000945D01*
X020856Y001225D01*
X020962Y001483D01*
X021160Y001681D01*
X021418Y001788D01*
X021698Y001788D01*
X021956Y001681D01*
X022149Y001488D01*
X022149Y003116D01*
X022006Y002973D01*
X021715Y002853D01*
X021401Y002853D01*
X021110Y002973D01*
X020887Y003196D01*
X020767Y003487D01*
X020767Y003801D01*
X020887Y004092D01*
X021110Y004315D01*
X021401Y004435D01*
X021715Y004435D01*
X022006Y004315D01*
X022149Y004172D01*
X022149Y009044D01*
X022126Y009021D01*
X022038Y008985D01*
X020593Y008985D01*
X020504Y009021D01*
X020437Y009089D01*
X020400Y009177D01*
X020400Y009922D01*
X020437Y010011D01*
X020504Y010078D01*
X020593Y010115D01*
X022038Y010115D01*
X022126Y010078D01*
X022149Y010056D01*
X022149Y010715D01*
X022142Y010724D01*
X022133Y010731D01*
X006416Y010731D01*
X006407Y010724D01*
X006401Y010715D01*
X006401Y010056D01*
X006423Y010078D01*
X006511Y010115D01*
X007957Y010115D01*
X008045Y010078D01*
X008112Y010011D01*
X008149Y009922D01*
X008149Y009177D01*
X008143Y009162D01*
X009630Y009162D01*
X009777Y009101D01*
X009889Y008989D01*
X010283Y008595D01*
X010344Y008448D01*
X010344Y008289D01*
X010344Y008160D01*
X010397Y008107D01*
X010434Y008019D01*
X010434Y006773D01*
X010397Y006685D01*
X010330Y006618D01*
X010242Y006581D01*
X009646Y006581D01*
X009558Y006618D01*
X009490Y006685D01*
X009454Y006773D01*
X009454Y008019D01*
X009490Y008107D01*
X009544Y008160D01*
X009544Y008203D01*
X009385Y008362D01*
X008141Y008362D01*
X007982Y008203D01*
X007982Y006566D01*
X008141Y006406D01*
X008683Y006406D01*
X008842Y006406D01*
X008886Y006388D01*
X009061Y006388D01*
X009149Y006352D01*
X009216Y006284D01*
X009253Y006196D01*
X009253Y004950D01*
X009246Y004934D01*
X009366Y004934D01*
X009480Y004887D01*
X009454Y004950D01*
X009454Y006196D01*
X009490Y006284D01*
X009216Y006284D01*
X009253Y006125D02*
X009454Y006125D01*
X009454Y005967D02*
X009253Y005967D01*
X009253Y005808D02*
X009454Y005808D01*
X009454Y005650D02*
X009253Y005650D01*
X009253Y005491D02*
X009454Y005491D01*
X009454Y005333D02*
X009253Y005333D01*
X009253Y005174D02*
X009454Y005174D01*
X009454Y005016D02*
X009253Y005016D01*
X008273Y005295D02*
X008143Y005164D01*
X008030Y005052D01*
X007969Y004905D01*
X007969Y003330D01*
X007969Y003171D01*
X008030Y003024D01*
X008424Y002630D01*
X008536Y002518D01*
X008683Y002457D01*
X008899Y002457D01*
X008911Y002444D01*
X009068Y002379D01*
X009605Y001843D01*
X009717Y001730D01*
X009864Y001669D01*
X011439Y001669D01*
X011598Y001669D01*
X011745Y001730D01*
X012078Y002063D01*
X016164Y002063D01*
X016323Y002063D01*
X016470Y002124D01*
X017031Y002685D01*
X017198Y002518D01*
X017345Y002457D01*
X017504Y002457D01*
X017560Y002457D01*
X017573Y002444D01*
X017791Y002354D01*
X018028Y002354D01*
X018246Y002444D01*
X018413Y002611D01*
X018504Y002830D01*
X018504Y003050D01*
X018707Y003050D01*
X018707Y002830D01*
X018797Y002611D01*
X018965Y002444D01*
X019183Y002354D01*
X019420Y002354D01*
X019638Y002444D01*
X019805Y002611D01*
X019896Y002830D01*
X019896Y002977D01*
X020519Y003600D01*
X020580Y003747D01*
X020767Y003747D01*
X020767Y003589D02*
X020508Y003589D01*
X020580Y003747D02*
X020580Y003906D01*
X020810Y003906D01*
X020876Y004064D02*
X020580Y004064D01*
X020580Y003906D02*
X020580Y004905D01*
X020519Y005052D01*
X020407Y005164D01*
X020276Y005295D01*
X020276Y006196D01*
X020240Y006284D01*
X022149Y006284D01*
X022149Y006443D02*
X016766Y006443D01*
X016803Y006406D02*
X016643Y006566D01*
X016643Y008203D01*
X016803Y008362D01*
X018046Y008362D01*
X018205Y008203D01*
X018205Y008160D01*
X018152Y008107D01*
X018115Y008019D01*
X018115Y006773D01*
X018152Y006685D01*
X018219Y006618D01*
X018308Y006581D01*
X018903Y006581D01*
X018991Y006618D01*
X019059Y006685D01*
X019095Y006773D01*
X019095Y008019D01*
X019059Y008107D01*
X019005Y008160D01*
X019005Y008289D01*
X019005Y008448D01*
X018944Y008595D01*
X018551Y008989D01*
X018438Y009101D01*
X018291Y009162D01*
X016804Y009162D01*
X016810Y009177D01*
X016810Y009922D01*
X016774Y010011D01*
X016706Y010078D01*
X016618Y010115D01*
X015173Y010115D01*
X015084Y010078D01*
X015017Y010011D01*
X014980Y009922D01*
X014980Y009177D01*
X015017Y009089D01*
X015084Y009021D01*
X015173Y008985D01*
X016294Y008985D01*
X016017Y008708D01*
X015904Y008595D01*
X015843Y008448D01*
X015843Y006480D01*
X015843Y006320D01*
X015904Y006173D01*
X016298Y005780D01*
X016410Y005667D01*
X016557Y005606D01*
X016934Y005606D01*
X016934Y005295D01*
X016691Y005052D01*
X016631Y004905D01*
X016631Y004746D01*
X016631Y003416D01*
X016077Y002863D01*
X015834Y002863D01*
X016101Y002973D01*
X016323Y003196D01*
X016444Y003487D01*
X016444Y003801D01*
X016323Y004092D01*
X016101Y004315D01*
X015810Y004435D01*
X015495Y004435D01*
X015204Y004315D01*
X014982Y004092D01*
X014861Y003801D01*
X014861Y003487D01*
X014982Y003196D01*
X015204Y002973D01*
X015471Y002863D01*
X013078Y002863D01*
X013345Y002973D01*
X013567Y003196D01*
X013688Y003487D01*
X013688Y003801D01*
X013567Y004092D01*
X013345Y004315D01*
X013054Y004435D01*
X012739Y004435D01*
X012449Y004315D01*
X012226Y004092D01*
X012106Y003801D01*
X012106Y003487D01*
X012226Y003196D01*
X012449Y002973D01*
X012715Y002863D01*
X011833Y002863D01*
X011686Y002802D01*
X011573Y002690D01*
X011353Y002469D01*
X011002Y002469D01*
X011144Y002611D01*
X011234Y002830D01*
X011234Y002977D01*
X011858Y003600D01*
X011919Y003747D01*
X012106Y003747D01*
X012106Y003589D02*
X011846Y003589D01*
X011919Y003747D02*
X011919Y003906D01*
X012149Y003906D01*
X012214Y004064D02*
X011919Y004064D01*
X011919Y003906D02*
X011919Y004905D01*
X011858Y005052D01*
X011745Y005164D01*
X011615Y005295D01*
X011615Y006196D01*
X011578Y006284D01*
X011511Y006352D01*
X011423Y006388D01*
X010827Y006388D01*
X010739Y006352D01*
X010672Y006284D01*
X010635Y006196D01*
X010635Y004950D01*
X010672Y004862D01*
X010678Y004856D01*
X010678Y004378D01*
X010602Y004378D01*
X010602Y004874D01*
X010598Y004874D01*
X010515Y004861D01*
X010435Y004835D01*
X010360Y004797D01*
X010344Y004785D01*
X010344Y004809D01*
X010397Y004862D01*
X010434Y004950D01*
X010434Y006196D01*
X010397Y006284D01*
X010330Y006352D01*
X010242Y006388D01*
X009646Y006388D01*
X009558Y006352D01*
X009490Y006284D01*
X009598Y006601D02*
X007982Y006601D01*
X007982Y006760D02*
X008343Y006760D01*
X008345Y006752D02*
X008333Y006797D01*
X008333Y007351D01*
X008718Y007351D01*
X008808Y007351D01*
X008808Y007441D01*
X009193Y007441D01*
X009193Y007995D01*
X009181Y008041D01*
X009157Y008082D01*
X009123Y008115D01*
X009082Y008139D01*
X009037Y008151D01*
X008808Y008151D01*
X008808Y007441D01*
X008718Y007441D01*
X008718Y008151D01*
X008489Y008151D01*
X008443Y008139D01*
X008402Y008115D01*
X008369Y008082D01*
X008345Y008041D01*
X008333Y007995D01*
X008333Y007441D01*
X008718Y007441D01*
X008718Y007351D01*
X008718Y006641D01*
X008489Y006641D01*
X008443Y006653D01*
X008402Y006677D01*
X008369Y006711D01*
X008345Y006752D01*
X008333Y006918D02*
X007982Y006918D01*
X007982Y007077D02*
X008333Y007077D01*
X008333Y007235D02*
X007982Y007235D01*
X007982Y007394D02*
X008718Y007394D01*
X008808Y007394D02*
X009454Y007394D01*
X009454Y007552D02*
X009193Y007552D01*
X009193Y007711D02*
X009454Y007711D01*
X009454Y007869D02*
X009193Y007869D01*
X009184Y008028D02*
X009458Y008028D01*
X009544Y008186D02*
X007982Y008186D01*
X007982Y008028D02*
X008342Y008028D01*
X008333Y007869D02*
X007982Y007869D01*
X007982Y007711D02*
X008333Y007711D01*
X008333Y007552D02*
X007982Y007552D01*
X008718Y007552D02*
X008808Y007552D01*
X008808Y007711D02*
X008718Y007711D01*
X008718Y007869D02*
X008808Y007869D01*
X008808Y008028D02*
X008718Y008028D01*
X008124Y008345D02*
X009402Y008345D01*
X009899Y008979D02*
X010358Y008979D01*
X010368Y009005D02*
X010303Y008847D01*
X010303Y008677D01*
X010368Y008520D01*
X010489Y008399D01*
X010557Y008371D01*
X010725Y008203D01*
X010725Y008160D01*
X010672Y008107D01*
X010635Y008019D01*
X010635Y006773D01*
X010672Y006685D01*
X010739Y006618D01*
X010827Y006581D01*
X011423Y006581D01*
X011511Y006618D01*
X011578Y006685D01*
X011615Y006773D01*
X011615Y008019D01*
X011578Y008107D01*
X011525Y008160D01*
X011525Y008448D01*
X011464Y008595D01*
X011352Y008708D01*
X011122Y008937D01*
X011094Y009005D01*
X010974Y009125D01*
X010816Y009190D01*
X010646Y009190D01*
X010489Y009125D01*
X010368Y009005D01*
X010303Y008821D02*
X010057Y008821D01*
X010216Y008662D02*
X010309Y008662D01*
X010321Y008504D02*
X010384Y008504D01*
X010344Y008345D02*
X010583Y008345D01*
X010725Y008186D02*
X010344Y008186D01*
X010430Y008028D02*
X010639Y008028D01*
X010635Y007869D02*
X010434Y007869D01*
X010434Y007711D02*
X010635Y007711D01*
X010635Y007552D02*
X010434Y007552D01*
X010434Y007394D02*
X010635Y007394D01*
X010635Y007235D02*
X010434Y007235D01*
X010434Y007077D02*
X010635Y007077D01*
X010635Y006918D02*
X010434Y006918D01*
X010428Y006760D02*
X010641Y006760D01*
X010779Y006601D02*
X010290Y006601D01*
X010397Y006284D02*
X010671Y006284D01*
X010635Y006125D02*
X010434Y006125D01*
X010434Y005967D02*
X010635Y005967D01*
X010635Y005808D02*
X010434Y005808D01*
X010434Y005650D02*
X010635Y005650D01*
X010635Y005491D02*
X010434Y005491D01*
X010434Y005333D02*
X010635Y005333D01*
X010635Y005174D02*
X010434Y005174D01*
X010434Y005016D02*
X010635Y005016D01*
X010602Y004857D02*
X010677Y004857D01*
X010678Y004699D02*
X010602Y004699D01*
X010602Y004540D02*
X010678Y004540D01*
X010678Y004381D02*
X010602Y004381D01*
X010602Y004302D02*
X010678Y004302D01*
X010678Y003806D01*
X010682Y003806D01*
X010765Y003819D01*
X010845Y003845D01*
X010920Y003883D01*
X010988Y003933D01*
X011047Y003992D01*
X011097Y004060D01*
X011119Y004103D01*
X011119Y003993D01*
X010669Y003542D01*
X010538Y003542D01*
X010538Y003762D01*
X010515Y003819D01*
X010598Y003806D01*
X010602Y003806D01*
X010602Y004302D01*
X010602Y004223D02*
X010678Y004223D01*
X010678Y004064D02*
X010602Y004064D01*
X010602Y003906D02*
X010678Y003906D01*
X010515Y003819D02*
X010515Y003819D01*
X010538Y003747D02*
X010873Y003747D01*
X010951Y003906D02*
X011032Y003906D01*
X011099Y004064D02*
X011119Y004064D01*
X010715Y003589D02*
X010538Y003589D01*
X011234Y002955D02*
X012494Y002955D01*
X012309Y003113D02*
X011371Y003113D01*
X011529Y003272D02*
X012195Y003272D01*
X012129Y003430D02*
X011688Y003430D01*
X011680Y002796D02*
X011220Y002796D01*
X011155Y002637D02*
X011521Y002637D01*
X011363Y002479D02*
X011011Y002479D01*
X011639Y001686D02*
X012512Y001686D01*
X012346Y001528D02*
X007542Y001528D01*
X007634Y001369D02*
X012254Y001369D01*
X012194Y001211D02*
X007694Y001211D01*
X007694Y001052D02*
X009590Y001052D01*
X009454Y000894D02*
X007672Y000894D01*
X007607Y000735D02*
X009392Y000735D01*
X009896Y000735D02*
X009992Y000735D01*
X009992Y000894D02*
X009896Y000894D01*
X009896Y001052D02*
X009992Y001052D01*
X010298Y001052D02*
X012194Y001052D01*
X012216Y000894D02*
X010434Y000894D01*
X010495Y000735D02*
X012281Y000735D01*
X012412Y000576D02*
X009992Y000576D01*
X009896Y000576D02*
X007476Y000576D01*
X007376Y001686D02*
X009823Y001686D01*
X009603Y001845D02*
X006401Y001845D01*
X006401Y002003D02*
X009444Y002003D01*
X009286Y002162D02*
X006401Y002162D01*
X006401Y002320D02*
X009127Y002320D01*
X008630Y002479D02*
X006401Y002479D01*
X006401Y002637D02*
X008416Y002637D01*
X008258Y002796D02*
X006401Y002796D01*
X006401Y002955D02*
X006588Y002955D01*
X006543Y002973D02*
X006834Y002853D01*
X007149Y002853D01*
X007439Y002973D01*
X007662Y003196D01*
X007782Y003487D01*
X007782Y003801D01*
X007662Y004092D01*
X007439Y004315D01*
X007149Y004435D01*
X006834Y004435D01*
X006543Y004315D01*
X006401Y004172D01*
X006401Y009044D01*
X006423Y009021D01*
X006511Y008985D01*
X007632Y008985D01*
X007355Y008708D01*
X007243Y008595D01*
X007182Y008448D01*
X007182Y006320D01*
X007243Y006173D01*
X007355Y006061D01*
X007355Y006061D01*
X007636Y005780D01*
X007636Y005780D01*
X007749Y005667D01*
X007896Y005606D01*
X008273Y005606D01*
X008273Y005295D01*
X008273Y005333D02*
X006401Y005333D01*
X006401Y005491D02*
X008273Y005491D01*
X008152Y005174D02*
X006401Y005174D01*
X006401Y005016D02*
X008015Y005016D01*
X007969Y004857D02*
X006401Y004857D01*
X006401Y004699D02*
X007969Y004699D01*
X007969Y004540D02*
X006401Y004540D01*
X006401Y004381D02*
X006704Y004381D01*
X006451Y004223D02*
X006401Y004223D01*
X007278Y004381D02*
X007969Y004381D01*
X007969Y004223D02*
X007531Y004223D01*
X007673Y004064D02*
X007969Y004064D01*
X007969Y003906D02*
X007739Y003906D01*
X007782Y003747D02*
X007969Y003747D01*
X007969Y003589D02*
X007782Y003589D01*
X007759Y003430D02*
X007969Y003430D01*
X007969Y003272D02*
X007693Y003272D01*
X007579Y003113D02*
X007993Y003113D01*
X008099Y002955D02*
X007394Y002955D01*
X006543Y002973D02*
X006401Y003116D01*
X006401Y003113D02*
X006403Y003113D01*
X006401Y001686D02*
X006607Y001686D01*
X006440Y001528D02*
X006401Y001528D01*
X010392Y004857D02*
X010502Y004857D01*
X011615Y005333D02*
X016934Y005333D01*
X016934Y005491D02*
X011615Y005491D01*
X011615Y005650D02*
X016452Y005650D01*
X016269Y005808D02*
X011615Y005808D01*
X011615Y005967D02*
X016111Y005967D01*
X015952Y006125D02*
X011615Y006125D01*
X011579Y006284D02*
X015858Y006284D01*
X015843Y006443D02*
X008105Y006443D01*
X008718Y006760D02*
X008808Y006760D01*
X008808Y006641D02*
X009037Y006641D01*
X009082Y006653D01*
X009123Y006677D01*
X009157Y006711D01*
X009181Y006752D01*
X009193Y006797D01*
X009193Y007351D01*
X008808Y007351D01*
X008808Y006641D01*
X008808Y006918D02*
X008718Y006918D01*
X008718Y007077D02*
X008808Y007077D01*
X008808Y007235D02*
X008718Y007235D01*
X009193Y007235D02*
X009454Y007235D01*
X009454Y007077D02*
X009193Y007077D01*
X009193Y006918D02*
X009454Y006918D01*
X009460Y006760D02*
X009183Y006760D01*
X007791Y005650D02*
X006401Y005650D01*
X006401Y005808D02*
X007608Y005808D01*
X007449Y005967D02*
X006401Y005967D01*
X006401Y006125D02*
X007291Y006125D01*
X007197Y006284D02*
X006401Y006284D01*
X006401Y006443D02*
X007182Y006443D01*
X007182Y006601D02*
X006401Y006601D01*
X006401Y006760D02*
X007182Y006760D01*
X007182Y006918D02*
X006401Y006918D01*
X006401Y007077D02*
X007182Y007077D01*
X007182Y007235D02*
X006401Y007235D01*
X006401Y007394D02*
X007182Y007394D01*
X007182Y007552D02*
X006401Y007552D01*
X006401Y007711D02*
X007182Y007711D01*
X007182Y007869D02*
X006401Y007869D01*
X006401Y008028D02*
X007182Y008028D01*
X007182Y008186D02*
X006401Y008186D01*
X006401Y008345D02*
X007182Y008345D01*
X007205Y008504D02*
X006401Y008504D01*
X006401Y008662D02*
X007310Y008662D01*
X007468Y008821D02*
X006401Y008821D01*
X006401Y008979D02*
X007627Y008979D01*
X008149Y009296D02*
X011739Y009296D01*
X011739Y009177D02*
X011775Y009089D01*
X011843Y009021D01*
X011931Y008985D01*
X013377Y008985D01*
X013465Y009021D01*
X013532Y009089D01*
X013569Y009177D01*
X013569Y009922D01*
X013532Y010011D01*
X013465Y010078D01*
X013377Y010115D01*
X011931Y010115D01*
X011843Y010078D01*
X011775Y010011D01*
X011739Y009922D01*
X011739Y009177D01*
X011755Y009138D02*
X010943Y009138D01*
X011105Y008979D02*
X016288Y008979D01*
X016130Y008821D02*
X011239Y008821D01*
X011397Y008662D02*
X015971Y008662D01*
X015866Y008504D02*
X011502Y008504D01*
X011525Y008345D02*
X015843Y008345D01*
X015843Y008186D02*
X011525Y008186D01*
X011611Y008028D02*
X015843Y008028D01*
X015843Y007869D02*
X011615Y007869D01*
X011615Y007711D02*
X015843Y007711D01*
X015843Y007552D02*
X011615Y007552D01*
X011615Y007394D02*
X015843Y007394D01*
X015843Y007235D02*
X011615Y007235D01*
X011615Y007077D02*
X015843Y007077D01*
X015843Y006918D02*
X011615Y006918D01*
X011609Y006760D02*
X015843Y006760D01*
X015843Y006601D02*
X011471Y006601D01*
X011735Y005174D02*
X016814Y005174D01*
X016676Y005016D02*
X011873Y005016D01*
X011919Y004857D02*
X016631Y004857D01*
X016631Y004699D02*
X011919Y004699D01*
X011919Y004540D02*
X016631Y004540D01*
X016631Y004381D02*
X015940Y004381D01*
X016193Y004223D02*
X016631Y004223D01*
X016631Y004064D02*
X016335Y004064D01*
X016401Y003906D02*
X016631Y003906D01*
X016631Y003747D02*
X016444Y003747D01*
X016444Y003589D02*
X016631Y003589D01*
X016631Y003430D02*
X016420Y003430D01*
X016355Y003272D02*
X016486Y003272D01*
X016328Y003113D02*
X016241Y003113D01*
X016169Y002955D02*
X016055Y002955D01*
X015250Y002955D02*
X013299Y002955D01*
X013485Y003113D02*
X015065Y003113D01*
X014950Y003272D02*
X013599Y003272D01*
X013664Y003430D02*
X014885Y003430D01*
X014861Y003589D02*
X013688Y003589D01*
X013688Y003747D02*
X014861Y003747D01*
X014905Y003906D02*
X013645Y003906D01*
X013579Y004064D02*
X014970Y004064D01*
X015113Y004223D02*
X013437Y004223D01*
X013184Y004381D02*
X015365Y004381D01*
X016983Y002637D02*
X017078Y002637D01*
X017291Y002479D02*
X016825Y002479D01*
X016666Y002320D02*
X022149Y002320D01*
X022149Y002162D02*
X016508Y002162D01*
X016037Y001686D02*
X021174Y001686D01*
X021007Y001528D02*
X016204Y001528D01*
X016295Y001369D02*
X020915Y001369D01*
X020856Y001211D02*
X016355Y001211D01*
X016355Y001052D02*
X018251Y001052D01*
X018116Y000894D02*
X016334Y000894D01*
X016268Y000735D02*
X018054Y000735D01*
X018557Y000735D02*
X018653Y000735D01*
X018653Y000894D02*
X018557Y000894D01*
X018557Y001052D02*
X018653Y001052D01*
X018960Y001052D02*
X020856Y001052D01*
X020877Y000894D02*
X019095Y000894D01*
X019157Y000735D02*
X020943Y000735D01*
X021073Y000576D02*
X018654Y000576D01*
X018557Y000576D02*
X016138Y000576D01*
X015168Y000576D02*
X013382Y000576D01*
X013512Y000735D02*
X015037Y000735D01*
X014971Y000894D02*
X013578Y000894D01*
X013599Y001052D02*
X014950Y001052D01*
X014950Y001211D02*
X013599Y001211D01*
X013539Y001369D02*
X015010Y001369D01*
X015102Y001528D02*
X013448Y001528D01*
X013281Y001686D02*
X015268Y001686D01*
X018281Y002479D02*
X018930Y002479D01*
X018787Y002637D02*
X018424Y002637D01*
X018490Y002796D02*
X018721Y002796D01*
X018707Y002955D02*
X018504Y002955D01*
X019200Y003542D02*
X019200Y003762D01*
X019176Y003819D01*
X019259Y003806D01*
X019263Y003806D01*
X019263Y004302D01*
X019339Y004302D01*
X019339Y003806D01*
X019343Y003806D01*
X019426Y003819D01*
X019506Y003845D01*
X019581Y003883D01*
X019649Y003933D01*
X019709Y003992D01*
X019758Y004060D01*
X019780Y004103D01*
X019780Y003993D01*
X019330Y003542D01*
X019200Y003542D01*
X019200Y003589D02*
X019376Y003589D01*
X019535Y003747D02*
X019200Y003747D01*
X019176Y003819D02*
X019176Y003819D01*
X019263Y003906D02*
X019339Y003906D01*
X019339Y004064D02*
X019263Y004064D01*
X019263Y004223D02*
X019339Y004223D01*
X019339Y004378D02*
X019339Y004856D01*
X019333Y004862D01*
X019296Y004950D01*
X019296Y006196D01*
X019333Y006284D01*
X019059Y006284D01*
X018991Y006352D01*
X018903Y006388D01*
X018308Y006388D01*
X018219Y006352D01*
X018152Y006284D01*
X017878Y006284D01*
X017810Y006352D01*
X017722Y006388D01*
X017547Y006388D01*
X017504Y006406D01*
X017345Y006406D01*
X016803Y006406D01*
X016643Y006601D02*
X018259Y006601D01*
X018121Y006760D02*
X017844Y006760D01*
X017842Y006752D02*
X017854Y006797D01*
X017854Y007351D01*
X017469Y007351D01*
X017469Y006641D01*
X017698Y006641D01*
X017744Y006653D01*
X017785Y006677D01*
X017818Y006711D01*
X017842Y006752D01*
X017854Y006918D02*
X018115Y006918D01*
X018115Y007077D02*
X017854Y007077D01*
X017854Y007235D02*
X018115Y007235D01*
X018115Y007394D02*
X017469Y007394D01*
X017469Y007351D02*
X017469Y007441D01*
X017379Y007441D01*
X017379Y007351D01*
X016994Y007351D01*
X016994Y006797D01*
X017007Y006752D01*
X017030Y006711D01*
X017064Y006677D01*
X017105Y006653D01*
X017151Y006641D01*
X017379Y006641D01*
X017379Y007351D01*
X017469Y007351D01*
X017469Y007441D02*
X017854Y007441D01*
X017854Y007995D01*
X017842Y008041D01*
X017818Y008082D01*
X017785Y008115D01*
X017744Y008139D01*
X017698Y008151D01*
X017469Y008151D01*
X017469Y007441D01*
X017379Y007441D02*
X017379Y008151D01*
X017151Y008151D01*
X017105Y008139D01*
X017064Y008115D01*
X017030Y008082D01*
X017007Y008041D01*
X016994Y007995D01*
X016994Y007441D01*
X017379Y007441D01*
X017379Y007394D02*
X016643Y007394D01*
X016643Y007552D02*
X016994Y007552D01*
X016994Y007711D02*
X016643Y007711D01*
X016643Y007869D02*
X016994Y007869D01*
X017003Y008028D02*
X016643Y008028D01*
X016643Y008186D02*
X018205Y008186D01*
X018119Y008028D02*
X017845Y008028D01*
X017854Y007869D02*
X018115Y007869D01*
X018115Y007711D02*
X017854Y007711D01*
X017854Y007552D02*
X018115Y007552D01*
X017469Y007552D02*
X017379Y007552D01*
X017379Y007711D02*
X017469Y007711D01*
X017469Y007869D02*
X017379Y007869D01*
X017379Y008028D02*
X017469Y008028D01*
X018063Y008345D02*
X016785Y008345D01*
X016810Y009296D02*
X020400Y009296D01*
X020400Y009455D02*
X016810Y009455D01*
X016810Y009613D02*
X020400Y009613D01*
X020400Y009772D02*
X016810Y009772D01*
X016807Y009930D02*
X020404Y009930D01*
X020531Y010089D02*
X016680Y010089D01*
X015111Y010089D02*
X013438Y010089D01*
X013566Y009930D02*
X014984Y009930D01*
X014980Y009772D02*
X013569Y009772D01*
X013569Y009613D02*
X014980Y009613D01*
X014980Y009455D02*
X013569Y009455D01*
X013569Y009296D02*
X014980Y009296D01*
X014997Y009138D02*
X013553Y009138D01*
X011869Y010089D02*
X008018Y010089D01*
X008146Y009930D02*
X011742Y009930D01*
X011739Y009772D02*
X008149Y009772D01*
X008149Y009613D02*
X011739Y009613D01*
X011739Y009455D02*
X008149Y009455D01*
X009689Y009138D02*
X010519Y009138D01*
X006449Y010089D02*
X006401Y010089D01*
X006401Y010248D02*
X022149Y010248D01*
X022149Y010406D02*
X006401Y010406D01*
X006401Y010565D02*
X022149Y010565D01*
X022143Y010723D02*
X006407Y010723D01*
X011919Y004381D02*
X012609Y004381D01*
X012357Y004223D02*
X011919Y004223D01*
X012018Y002003D02*
X022149Y002003D01*
X022149Y001845D02*
X011860Y001845D01*
X016643Y006760D02*
X017004Y006760D01*
X016994Y006918D02*
X016643Y006918D01*
X016643Y007077D02*
X016994Y007077D01*
X016994Y007235D02*
X016643Y007235D01*
X017379Y007235D02*
X017469Y007235D01*
X017469Y007077D02*
X017379Y007077D01*
X017379Y006918D02*
X017469Y006918D01*
X017469Y006760D02*
X017379Y006760D01*
X017878Y006284D02*
X017914Y006196D01*
X017914Y004950D01*
X017908Y004934D01*
X018028Y004934D01*
X018142Y004887D01*
X018115Y004950D01*
X018115Y006196D01*
X018152Y006284D01*
X018115Y006125D02*
X017914Y006125D01*
X017914Y005967D02*
X018115Y005967D01*
X018115Y005808D02*
X017914Y005808D01*
X017914Y005650D02*
X018115Y005650D01*
X018115Y005491D02*
X017914Y005491D01*
X017914Y005333D02*
X018115Y005333D01*
X018115Y005174D02*
X017914Y005174D01*
X017914Y005016D02*
X018115Y005016D01*
X019005Y004809D02*
X019059Y004862D01*
X019095Y004950D01*
X019095Y006196D01*
X019059Y006284D01*
X019095Y006125D02*
X019296Y006125D01*
X019296Y005967D02*
X019095Y005967D01*
X019095Y005808D02*
X019296Y005808D01*
X019296Y005650D02*
X019095Y005650D01*
X019095Y005491D02*
X019296Y005491D01*
X019296Y005333D02*
X019095Y005333D01*
X019095Y005174D02*
X019296Y005174D01*
X019296Y005016D02*
X019095Y005016D01*
X019054Y004857D02*
X019163Y004857D01*
X019176Y004861D02*
X019096Y004835D01*
X019021Y004797D01*
X019005Y004785D01*
X019005Y004809D01*
X019176Y004861D02*
X019259Y004874D01*
X019263Y004874D01*
X019263Y004378D01*
X019339Y004378D01*
X019339Y004381D02*
X019263Y004381D01*
X019263Y004540D02*
X019339Y004540D01*
X019339Y004699D02*
X019263Y004699D01*
X019263Y004857D02*
X019338Y004857D01*
X019761Y004064D02*
X019780Y004064D01*
X019693Y003906D02*
X019613Y003906D01*
X020191Y003272D02*
X020856Y003272D01*
X020790Y003430D02*
X020349Y003430D01*
X020032Y003113D02*
X020970Y003113D01*
X021155Y002955D02*
X019896Y002955D01*
X019882Y002796D02*
X022149Y002796D01*
X022149Y002637D02*
X019816Y002637D01*
X019673Y002479D02*
X022149Y002479D01*
X022149Y002955D02*
X021961Y002955D01*
X022146Y003113D02*
X022149Y003113D01*
X022149Y004223D02*
X022098Y004223D01*
X022149Y004381D02*
X021845Y004381D01*
X022149Y004540D02*
X020580Y004540D01*
X020580Y004381D02*
X021271Y004381D01*
X021018Y004223D02*
X020580Y004223D01*
X020580Y004699D02*
X022149Y004699D01*
X022149Y004857D02*
X020580Y004857D01*
X020534Y005016D02*
X022149Y005016D01*
X022149Y005174D02*
X020397Y005174D01*
X020276Y005333D02*
X022149Y005333D01*
X022149Y005491D02*
X020276Y005491D01*
X020276Y005650D02*
X022149Y005650D01*
X022149Y005808D02*
X020276Y005808D01*
X020276Y005967D02*
X022149Y005967D01*
X022149Y006125D02*
X020276Y006125D01*
X020240Y006284D02*
X020172Y006352D01*
X020084Y006388D01*
X019489Y006388D01*
X019400Y006352D01*
X019333Y006284D01*
X019440Y006601D02*
X018951Y006601D01*
X019090Y006760D02*
X019302Y006760D01*
X019296Y006773D02*
X019333Y006685D01*
X019400Y006618D01*
X019489Y006581D01*
X020084Y006581D01*
X020172Y006618D01*
X020240Y006685D01*
X020276Y006773D01*
X020276Y008019D01*
X020240Y008107D01*
X020186Y008160D01*
X020186Y008448D01*
X020126Y008595D01*
X020013Y008708D01*
X019784Y008937D01*
X019756Y009005D01*
X019635Y009125D01*
X019478Y009190D01*
X019308Y009190D01*
X019150Y009125D01*
X019030Y009005D01*
X018965Y008847D01*
X018965Y008677D01*
X019030Y008520D01*
X019150Y008399D01*
X019218Y008371D01*
X019386Y008203D01*
X019386Y008160D01*
X019333Y008107D01*
X019296Y008019D01*
X019296Y006773D01*
X019296Y006918D02*
X019095Y006918D01*
X019095Y007077D02*
X019296Y007077D01*
X019296Y007235D02*
X019095Y007235D01*
X019095Y007394D02*
X019296Y007394D01*
X019296Y007552D02*
X019095Y007552D01*
X019095Y007711D02*
X019296Y007711D01*
X019296Y007869D02*
X019095Y007869D01*
X019092Y008028D02*
X019300Y008028D01*
X019386Y008186D02*
X019005Y008186D01*
X019005Y008345D02*
X019244Y008345D01*
X019046Y008504D02*
X018982Y008504D01*
X018971Y008662D02*
X018877Y008662D01*
X018965Y008821D02*
X018719Y008821D01*
X018560Y008979D02*
X019019Y008979D01*
X019181Y009138D02*
X018350Y009138D01*
X019605Y009138D02*
X020417Y009138D01*
X020058Y008662D02*
X022149Y008662D01*
X022149Y008504D02*
X020163Y008504D01*
X020186Y008345D02*
X022149Y008345D01*
X022149Y008186D02*
X020186Y008186D01*
X020273Y008028D02*
X022149Y008028D01*
X022149Y007869D02*
X020276Y007869D01*
X020276Y007711D02*
X022149Y007711D01*
X022149Y007552D02*
X020276Y007552D01*
X020276Y007394D02*
X022149Y007394D01*
X022149Y007235D02*
X020276Y007235D01*
X020276Y007077D02*
X022149Y007077D01*
X022149Y006918D02*
X020276Y006918D01*
X020271Y006760D02*
X022149Y006760D01*
X022149Y006601D02*
X020132Y006601D01*
X019900Y008821D02*
X022149Y008821D01*
X022149Y008979D02*
X019766Y008979D01*
X022100Y010089D02*
X022149Y010089D01*
X022149Y001686D02*
X021943Y001686D01*
X022109Y001528D02*
X022149Y001528D01*
M02*
