G75*
G70*
%OFA0B0*%
%FSLAX24Y24*%
%IPPOS*%
%LPD*%
%AMOC8*
5,1,8,0,0,1.08239X$1,22.5*
%
%ADD10C,0.0000*%
%ADD11C,0.0709*%
%ADD12C,0.0768*%
%ADD13R,0.0500X0.1000*%
%ADD14R,0.1000X0.0500*%
%ADD15R,0.0650X0.1350*%
%ADD16C,0.0240*%
%ADD17C,0.0160*%
D10*
X006007Y000888D02*
X006007Y010337D01*
X006009Y010391D01*
X006014Y010444D01*
X006023Y010497D01*
X006036Y010549D01*
X006052Y010601D01*
X006072Y010651D01*
X006095Y010699D01*
X006122Y010746D01*
X006151Y010791D01*
X006184Y010834D01*
X006219Y010874D01*
X006257Y010912D01*
X006297Y010947D01*
X006340Y010980D01*
X006385Y011009D01*
X006432Y011036D01*
X006480Y011059D01*
X006530Y011079D01*
X006582Y011095D01*
X006634Y011108D01*
X006687Y011117D01*
X006740Y011122D01*
X006794Y011124D01*
X021755Y011124D01*
X021809Y011122D01*
X021862Y011117D01*
X021915Y011108D01*
X021967Y011095D01*
X022019Y011079D01*
X022069Y011059D01*
X022117Y011036D01*
X022164Y011009D01*
X022209Y010980D01*
X022252Y010947D01*
X022292Y010912D01*
X022330Y010874D01*
X022365Y010834D01*
X022398Y010791D01*
X022427Y010746D01*
X022454Y010699D01*
X022477Y010651D01*
X022497Y010601D01*
X022513Y010549D01*
X022526Y010497D01*
X022535Y010444D01*
X022540Y010391D01*
X022542Y010337D01*
X022542Y000888D01*
X022540Y000834D01*
X022535Y000781D01*
X022526Y000728D01*
X022513Y000676D01*
X022497Y000624D01*
X022477Y000574D01*
X022454Y000526D01*
X022427Y000479D01*
X022398Y000434D01*
X022365Y000391D01*
X022330Y000351D01*
X022292Y000313D01*
X022252Y000278D01*
X022209Y000245D01*
X022164Y000216D01*
X022117Y000189D01*
X022069Y000166D01*
X022019Y000146D01*
X021967Y000130D01*
X021915Y000117D01*
X021862Y000108D01*
X021809Y000103D01*
X021755Y000101D01*
X006794Y000101D01*
X006740Y000103D01*
X006687Y000108D01*
X006634Y000117D01*
X006582Y000130D01*
X006530Y000146D01*
X006480Y000166D01*
X006432Y000189D01*
X006385Y000216D01*
X006340Y000245D01*
X006297Y000278D01*
X006257Y000313D01*
X006219Y000351D01*
X006184Y000391D01*
X006151Y000434D01*
X006122Y000479D01*
X006095Y000526D01*
X006072Y000574D01*
X006052Y000624D01*
X006036Y000676D01*
X006023Y000728D01*
X006014Y000781D01*
X006009Y000834D01*
X006007Y000888D01*
X006528Y001085D02*
X006530Y001128D01*
X006536Y001170D01*
X006546Y001212D01*
X006559Y001252D01*
X006577Y001291D01*
X006597Y001329D01*
X006622Y001364D01*
X006649Y001397D01*
X006679Y001427D01*
X006712Y001454D01*
X006747Y001479D01*
X006785Y001499D01*
X006824Y001517D01*
X006864Y001530D01*
X006906Y001540D01*
X006948Y001546D01*
X006991Y001548D01*
X007034Y001546D01*
X007076Y001540D01*
X007118Y001530D01*
X007158Y001517D01*
X007197Y001499D01*
X007235Y001479D01*
X007270Y001454D01*
X007303Y001427D01*
X007333Y001397D01*
X007360Y001364D01*
X007385Y001329D01*
X007405Y001291D01*
X007423Y001252D01*
X007436Y001212D01*
X007446Y001170D01*
X007452Y001128D01*
X007454Y001085D01*
X007452Y001042D01*
X007446Y001000D01*
X007436Y000958D01*
X007423Y000918D01*
X007405Y000879D01*
X007385Y000841D01*
X007360Y000806D01*
X007333Y000773D01*
X007303Y000743D01*
X007270Y000716D01*
X007235Y000691D01*
X007197Y000671D01*
X007158Y000653D01*
X007118Y000640D01*
X007076Y000630D01*
X007034Y000624D01*
X006991Y000622D01*
X006948Y000624D01*
X006906Y000630D01*
X006864Y000640D01*
X006824Y000653D01*
X006785Y000671D01*
X006747Y000691D01*
X006712Y000716D01*
X006679Y000743D01*
X006649Y000773D01*
X006622Y000806D01*
X006597Y000841D01*
X006577Y000879D01*
X006559Y000918D01*
X006546Y000958D01*
X006536Y001000D01*
X006530Y001042D01*
X006528Y001085D01*
X006440Y003644D02*
X006442Y003691D01*
X006448Y003737D01*
X006458Y003783D01*
X006471Y003828D01*
X006489Y003871D01*
X006510Y003913D01*
X006534Y003953D01*
X006562Y003990D01*
X006593Y004025D01*
X006627Y004058D01*
X006663Y004087D01*
X006702Y004113D01*
X006743Y004136D01*
X006786Y004155D01*
X006830Y004171D01*
X006875Y004183D01*
X006921Y004191D01*
X006968Y004195D01*
X007014Y004195D01*
X007061Y004191D01*
X007107Y004183D01*
X007152Y004171D01*
X007196Y004155D01*
X007239Y004136D01*
X007280Y004113D01*
X007319Y004087D01*
X007355Y004058D01*
X007389Y004025D01*
X007420Y003990D01*
X007448Y003953D01*
X007472Y003913D01*
X007493Y003871D01*
X007511Y003828D01*
X007524Y003783D01*
X007534Y003737D01*
X007540Y003691D01*
X007542Y003644D01*
X007540Y003597D01*
X007534Y003551D01*
X007524Y003505D01*
X007511Y003460D01*
X007493Y003417D01*
X007472Y003375D01*
X007448Y003335D01*
X007420Y003298D01*
X007389Y003263D01*
X007355Y003230D01*
X007319Y003201D01*
X007280Y003175D01*
X007239Y003152D01*
X007196Y003133D01*
X007152Y003117D01*
X007107Y003105D01*
X007061Y003097D01*
X007014Y003093D01*
X006968Y003093D01*
X006921Y003097D01*
X006875Y003105D01*
X006830Y003117D01*
X006786Y003133D01*
X006743Y003152D01*
X006702Y003175D01*
X006663Y003201D01*
X006627Y003230D01*
X006593Y003263D01*
X006562Y003298D01*
X006534Y003335D01*
X006510Y003375D01*
X006489Y003417D01*
X006471Y003460D01*
X006458Y003505D01*
X006448Y003551D01*
X006442Y003597D01*
X006440Y003644D01*
X007442Y007581D02*
X007444Y007624D01*
X007450Y007667D01*
X007460Y007709D01*
X007473Y007750D01*
X007490Y007789D01*
X007511Y007827D01*
X007535Y007863D01*
X007562Y007897D01*
X007592Y007927D01*
X007625Y007955D01*
X007661Y007980D01*
X007698Y008002D01*
X007737Y008020D01*
X007778Y008034D01*
X007820Y008045D01*
X007862Y008052D01*
X007905Y008055D01*
X007948Y008054D01*
X007991Y008049D01*
X008033Y008040D01*
X008075Y008028D01*
X008115Y008011D01*
X008153Y007991D01*
X008189Y007968D01*
X008223Y007942D01*
X008255Y007912D01*
X008284Y007880D01*
X008309Y007845D01*
X008332Y007809D01*
X008351Y007770D01*
X008366Y007730D01*
X008378Y007688D01*
X008386Y007646D01*
X008390Y007603D01*
X008390Y007559D01*
X008386Y007516D01*
X008378Y007474D01*
X008366Y007432D01*
X008351Y007392D01*
X008332Y007353D01*
X008309Y007317D01*
X008284Y007282D01*
X008255Y007250D01*
X008223Y007220D01*
X008189Y007194D01*
X008153Y007171D01*
X008115Y007151D01*
X008075Y007134D01*
X008033Y007122D01*
X007991Y007113D01*
X007948Y007108D01*
X007905Y007107D01*
X007862Y007110D01*
X007820Y007117D01*
X007778Y007128D01*
X007737Y007142D01*
X007698Y007160D01*
X007661Y007182D01*
X007625Y007207D01*
X007592Y007235D01*
X007562Y007265D01*
X007535Y007299D01*
X007511Y007335D01*
X007490Y007373D01*
X007473Y007412D01*
X007460Y007453D01*
X007450Y007495D01*
X007444Y007538D01*
X007442Y007581D01*
X011497Y007581D02*
X011499Y007624D01*
X011505Y007667D01*
X011515Y007709D01*
X011528Y007750D01*
X011545Y007789D01*
X011566Y007827D01*
X011590Y007863D01*
X011617Y007897D01*
X011647Y007927D01*
X011680Y007955D01*
X011716Y007980D01*
X011753Y008002D01*
X011792Y008020D01*
X011833Y008034D01*
X011875Y008045D01*
X011917Y008052D01*
X011960Y008055D01*
X012003Y008054D01*
X012046Y008049D01*
X012088Y008040D01*
X012130Y008028D01*
X012170Y008011D01*
X012208Y007991D01*
X012244Y007968D01*
X012278Y007942D01*
X012310Y007912D01*
X012339Y007880D01*
X012364Y007845D01*
X012387Y007809D01*
X012406Y007770D01*
X012421Y007730D01*
X012433Y007688D01*
X012441Y007646D01*
X012445Y007603D01*
X012445Y007559D01*
X012441Y007516D01*
X012433Y007474D01*
X012421Y007432D01*
X012406Y007392D01*
X012387Y007353D01*
X012364Y007317D01*
X012339Y007282D01*
X012310Y007250D01*
X012278Y007220D01*
X012244Y007194D01*
X012208Y007171D01*
X012170Y007151D01*
X012130Y007134D01*
X012088Y007122D01*
X012046Y007113D01*
X012003Y007108D01*
X011960Y007107D01*
X011917Y007110D01*
X011875Y007117D01*
X011833Y007128D01*
X011792Y007142D01*
X011753Y007160D01*
X011716Y007182D01*
X011680Y007207D01*
X011647Y007235D01*
X011617Y007265D01*
X011590Y007299D01*
X011566Y007335D01*
X011545Y007373D01*
X011528Y007412D01*
X011515Y007453D01*
X011505Y007495D01*
X011499Y007538D01*
X011497Y007581D01*
X012346Y003644D02*
X012348Y003691D01*
X012354Y003737D01*
X012364Y003783D01*
X012377Y003828D01*
X012395Y003871D01*
X012416Y003913D01*
X012440Y003953D01*
X012468Y003990D01*
X012499Y004025D01*
X012533Y004058D01*
X012569Y004087D01*
X012608Y004113D01*
X012649Y004136D01*
X012692Y004155D01*
X012736Y004171D01*
X012781Y004183D01*
X012827Y004191D01*
X012874Y004195D01*
X012920Y004195D01*
X012967Y004191D01*
X013013Y004183D01*
X013058Y004171D01*
X013102Y004155D01*
X013145Y004136D01*
X013186Y004113D01*
X013225Y004087D01*
X013261Y004058D01*
X013295Y004025D01*
X013326Y003990D01*
X013354Y003953D01*
X013378Y003913D01*
X013399Y003871D01*
X013417Y003828D01*
X013430Y003783D01*
X013440Y003737D01*
X013446Y003691D01*
X013448Y003644D01*
X013446Y003597D01*
X013440Y003551D01*
X013430Y003505D01*
X013417Y003460D01*
X013399Y003417D01*
X013378Y003375D01*
X013354Y003335D01*
X013326Y003298D01*
X013295Y003263D01*
X013261Y003230D01*
X013225Y003201D01*
X013186Y003175D01*
X013145Y003152D01*
X013102Y003133D01*
X013058Y003117D01*
X013013Y003105D01*
X012967Y003097D01*
X012920Y003093D01*
X012874Y003093D01*
X012827Y003097D01*
X012781Y003105D01*
X012736Y003117D01*
X012692Y003133D01*
X012649Y003152D01*
X012608Y003175D01*
X012569Y003201D01*
X012533Y003230D01*
X012499Y003263D01*
X012468Y003298D01*
X012440Y003335D01*
X012416Y003375D01*
X012395Y003417D01*
X012377Y003460D01*
X012364Y003505D01*
X012354Y003551D01*
X012348Y003597D01*
X012346Y003644D01*
X012434Y001085D02*
X012436Y001128D01*
X012442Y001170D01*
X012452Y001212D01*
X012465Y001252D01*
X012483Y001291D01*
X012503Y001329D01*
X012528Y001364D01*
X012555Y001397D01*
X012585Y001427D01*
X012618Y001454D01*
X012653Y001479D01*
X012691Y001499D01*
X012730Y001517D01*
X012770Y001530D01*
X012812Y001540D01*
X012854Y001546D01*
X012897Y001548D01*
X012940Y001546D01*
X012982Y001540D01*
X013024Y001530D01*
X013064Y001517D01*
X013103Y001499D01*
X013141Y001479D01*
X013176Y001454D01*
X013209Y001427D01*
X013239Y001397D01*
X013266Y001364D01*
X013291Y001329D01*
X013311Y001291D01*
X013329Y001252D01*
X013342Y001212D01*
X013352Y001170D01*
X013358Y001128D01*
X013360Y001085D01*
X013358Y001042D01*
X013352Y001000D01*
X013342Y000958D01*
X013329Y000918D01*
X013311Y000879D01*
X013291Y000841D01*
X013266Y000806D01*
X013239Y000773D01*
X013209Y000743D01*
X013176Y000716D01*
X013141Y000691D01*
X013103Y000671D01*
X013064Y000653D01*
X013024Y000640D01*
X012982Y000630D01*
X012940Y000624D01*
X012897Y000622D01*
X012854Y000624D01*
X012812Y000630D01*
X012770Y000640D01*
X012730Y000653D01*
X012691Y000671D01*
X012653Y000691D01*
X012618Y000716D01*
X012585Y000743D01*
X012555Y000773D01*
X012528Y000806D01*
X012503Y000841D01*
X012483Y000879D01*
X012465Y000918D01*
X012452Y000958D01*
X012442Y001000D01*
X012436Y001042D01*
X012434Y001085D01*
X015190Y001085D02*
X015192Y001128D01*
X015198Y001170D01*
X015208Y001212D01*
X015221Y001252D01*
X015239Y001291D01*
X015259Y001329D01*
X015284Y001364D01*
X015311Y001397D01*
X015341Y001427D01*
X015374Y001454D01*
X015409Y001479D01*
X015447Y001499D01*
X015486Y001517D01*
X015526Y001530D01*
X015568Y001540D01*
X015610Y001546D01*
X015653Y001548D01*
X015696Y001546D01*
X015738Y001540D01*
X015780Y001530D01*
X015820Y001517D01*
X015859Y001499D01*
X015897Y001479D01*
X015932Y001454D01*
X015965Y001427D01*
X015995Y001397D01*
X016022Y001364D01*
X016047Y001329D01*
X016067Y001291D01*
X016085Y001252D01*
X016098Y001212D01*
X016108Y001170D01*
X016114Y001128D01*
X016116Y001085D01*
X016114Y001042D01*
X016108Y001000D01*
X016098Y000958D01*
X016085Y000918D01*
X016067Y000879D01*
X016047Y000841D01*
X016022Y000806D01*
X015995Y000773D01*
X015965Y000743D01*
X015932Y000716D01*
X015897Y000691D01*
X015859Y000671D01*
X015820Y000653D01*
X015780Y000640D01*
X015738Y000630D01*
X015696Y000624D01*
X015653Y000622D01*
X015610Y000624D01*
X015568Y000630D01*
X015526Y000640D01*
X015486Y000653D01*
X015447Y000671D01*
X015409Y000691D01*
X015374Y000716D01*
X015341Y000743D01*
X015311Y000773D01*
X015284Y000806D01*
X015259Y000841D01*
X015239Y000879D01*
X015221Y000918D01*
X015208Y000958D01*
X015198Y001000D01*
X015192Y001042D01*
X015190Y001085D01*
X015102Y003644D02*
X015104Y003691D01*
X015110Y003737D01*
X015120Y003783D01*
X015133Y003828D01*
X015151Y003871D01*
X015172Y003913D01*
X015196Y003953D01*
X015224Y003990D01*
X015255Y004025D01*
X015289Y004058D01*
X015325Y004087D01*
X015364Y004113D01*
X015405Y004136D01*
X015448Y004155D01*
X015492Y004171D01*
X015537Y004183D01*
X015583Y004191D01*
X015630Y004195D01*
X015676Y004195D01*
X015723Y004191D01*
X015769Y004183D01*
X015814Y004171D01*
X015858Y004155D01*
X015901Y004136D01*
X015942Y004113D01*
X015981Y004087D01*
X016017Y004058D01*
X016051Y004025D01*
X016082Y003990D01*
X016110Y003953D01*
X016134Y003913D01*
X016155Y003871D01*
X016173Y003828D01*
X016186Y003783D01*
X016196Y003737D01*
X016202Y003691D01*
X016204Y003644D01*
X016202Y003597D01*
X016196Y003551D01*
X016186Y003505D01*
X016173Y003460D01*
X016155Y003417D01*
X016134Y003375D01*
X016110Y003335D01*
X016082Y003298D01*
X016051Y003263D01*
X016017Y003230D01*
X015981Y003201D01*
X015942Y003175D01*
X015901Y003152D01*
X015858Y003133D01*
X015814Y003117D01*
X015769Y003105D01*
X015723Y003097D01*
X015676Y003093D01*
X015630Y003093D01*
X015583Y003097D01*
X015537Y003105D01*
X015492Y003117D01*
X015448Y003133D01*
X015405Y003152D01*
X015364Y003175D01*
X015325Y003201D01*
X015289Y003230D01*
X015255Y003263D01*
X015224Y003298D01*
X015196Y003335D01*
X015172Y003375D01*
X015151Y003417D01*
X015133Y003460D01*
X015120Y003505D01*
X015110Y003551D01*
X015104Y003597D01*
X015102Y003644D01*
X021007Y003644D02*
X021009Y003691D01*
X021015Y003737D01*
X021025Y003783D01*
X021038Y003828D01*
X021056Y003871D01*
X021077Y003913D01*
X021101Y003953D01*
X021129Y003990D01*
X021160Y004025D01*
X021194Y004058D01*
X021230Y004087D01*
X021269Y004113D01*
X021310Y004136D01*
X021353Y004155D01*
X021397Y004171D01*
X021442Y004183D01*
X021488Y004191D01*
X021535Y004195D01*
X021581Y004195D01*
X021628Y004191D01*
X021674Y004183D01*
X021719Y004171D01*
X021763Y004155D01*
X021806Y004136D01*
X021847Y004113D01*
X021886Y004087D01*
X021922Y004058D01*
X021956Y004025D01*
X021987Y003990D01*
X022015Y003953D01*
X022039Y003913D01*
X022060Y003871D01*
X022078Y003828D01*
X022091Y003783D01*
X022101Y003737D01*
X022107Y003691D01*
X022109Y003644D01*
X022107Y003597D01*
X022101Y003551D01*
X022091Y003505D01*
X022078Y003460D01*
X022060Y003417D01*
X022039Y003375D01*
X022015Y003335D01*
X021987Y003298D01*
X021956Y003263D01*
X021922Y003230D01*
X021886Y003201D01*
X021847Y003175D01*
X021806Y003152D01*
X021763Y003133D01*
X021719Y003117D01*
X021674Y003105D01*
X021628Y003097D01*
X021581Y003093D01*
X021535Y003093D01*
X021488Y003097D01*
X021442Y003105D01*
X021397Y003117D01*
X021353Y003133D01*
X021310Y003152D01*
X021269Y003175D01*
X021230Y003201D01*
X021194Y003230D01*
X021160Y003263D01*
X021129Y003298D01*
X021101Y003335D01*
X021077Y003375D01*
X021056Y003417D01*
X021038Y003460D01*
X021025Y003505D01*
X021015Y003551D01*
X021009Y003597D01*
X021007Y003644D01*
X021095Y001085D02*
X021097Y001128D01*
X021103Y001170D01*
X021113Y001212D01*
X021126Y001252D01*
X021144Y001291D01*
X021164Y001329D01*
X021189Y001364D01*
X021216Y001397D01*
X021246Y001427D01*
X021279Y001454D01*
X021314Y001479D01*
X021352Y001499D01*
X021391Y001517D01*
X021431Y001530D01*
X021473Y001540D01*
X021515Y001546D01*
X021558Y001548D01*
X021601Y001546D01*
X021643Y001540D01*
X021685Y001530D01*
X021725Y001517D01*
X021764Y001499D01*
X021802Y001479D01*
X021837Y001454D01*
X021870Y001427D01*
X021900Y001397D01*
X021927Y001364D01*
X021952Y001329D01*
X021972Y001291D01*
X021990Y001252D01*
X022003Y001212D01*
X022013Y001170D01*
X022019Y001128D01*
X022021Y001085D01*
X022019Y001042D01*
X022013Y001000D01*
X022003Y000958D01*
X021990Y000918D01*
X021972Y000879D01*
X021952Y000841D01*
X021927Y000806D01*
X021900Y000773D01*
X021870Y000743D01*
X021837Y000716D01*
X021802Y000691D01*
X021764Y000671D01*
X021725Y000653D01*
X021685Y000640D01*
X021643Y000630D01*
X021601Y000624D01*
X021558Y000622D01*
X021515Y000624D01*
X021473Y000630D01*
X021431Y000640D01*
X021391Y000653D01*
X021352Y000671D01*
X021314Y000691D01*
X021279Y000716D01*
X021246Y000743D01*
X021216Y000773D01*
X021189Y000806D01*
X021164Y000841D01*
X021144Y000879D01*
X021126Y000918D01*
X021113Y000958D01*
X021103Y001000D01*
X021097Y001042D01*
X021095Y001085D01*
D11*
X019301Y002948D03*
X018605Y003644D03*
X017909Y004340D03*
X019301Y004340D03*
X017909Y002948D03*
X010640Y002948D03*
X009944Y003644D03*
X010640Y004340D03*
X009248Y004340D03*
X009248Y002948D03*
D12*
X009944Y000613D03*
X018605Y000613D03*
D13*
X011125Y005731D03*
X009944Y005731D03*
X008763Y005731D03*
X008763Y009431D03*
X009944Y009431D03*
X011125Y009431D03*
D14*
X016361Y007581D03*
X020062Y007581D03*
D15*
X018212Y006052D03*
X018212Y009111D03*
D16*
X018999Y010337D02*
X020062Y009274D01*
X020062Y007581D01*
X020062Y006282D01*
X018120Y004340D01*
X017909Y004340D01*
X017909Y002948D02*
X016361Y004496D01*
X016361Y007581D01*
X015849Y007581D01*
X015062Y008369D01*
X010338Y008369D01*
X008763Y006794D01*
X008763Y005731D01*
X008763Y006006D01*
X008763Y005731D02*
X007975Y004944D01*
X007975Y003644D01*
X008671Y002948D01*
X009248Y002948D01*
X009944Y003644D02*
X009944Y005731D01*
X011125Y005731D02*
X011912Y004944D01*
X011912Y003644D01*
X011216Y002948D01*
X010640Y002948D01*
X010338Y008369D02*
X009944Y008762D01*
X009944Y009431D01*
X011125Y009431D02*
X012031Y010337D01*
X018999Y010337D01*
D17*
X019280Y010565D02*
X022149Y010565D01*
X022149Y010715D02*
X022149Y004172D01*
X022006Y004315D01*
X021715Y004435D01*
X021401Y004435D01*
X021110Y004315D01*
X020887Y004092D01*
X020767Y003801D01*
X020767Y003487D01*
X020887Y003196D01*
X021110Y002973D01*
X021401Y002853D01*
X021715Y002853D01*
X022006Y002973D01*
X022149Y003116D01*
X022149Y001488D01*
X021956Y001681D01*
X021698Y001788D01*
X021418Y001788D01*
X021160Y001681D01*
X020962Y001483D01*
X020856Y001225D01*
X020856Y000945D01*
X020962Y000687D01*
X021155Y000494D01*
X019157Y000494D01*
X019169Y000565D01*
X018654Y000565D01*
X018654Y000661D01*
X019169Y000661D01*
X019155Y000745D01*
X019128Y000829D01*
X019088Y000908D01*
X019035Y000980D01*
X018973Y001043D01*
X018901Y001095D01*
X018822Y001135D01*
X018737Y001163D01*
X018653Y001176D01*
X018653Y000661D01*
X018557Y000661D01*
X018557Y001176D01*
X018473Y001163D01*
X018389Y001135D01*
X018310Y001095D01*
X018238Y001043D01*
X018175Y000980D01*
X018123Y000908D01*
X018083Y000829D01*
X018055Y000745D01*
X018042Y000661D01*
X018557Y000661D01*
X018557Y000565D01*
X018042Y000565D01*
X018053Y000494D01*
X016056Y000494D01*
X016248Y000687D01*
X016355Y000945D01*
X016355Y001225D01*
X016248Y001483D01*
X016051Y001681D01*
X015792Y001788D01*
X015513Y001788D01*
X015255Y001681D01*
X015057Y001483D01*
X014950Y001225D01*
X014950Y000945D01*
X015057Y000687D01*
X015250Y000494D01*
X013300Y000494D01*
X013492Y000687D01*
X013599Y000945D01*
X013599Y001225D01*
X013492Y001483D01*
X013295Y001681D01*
X013036Y001788D01*
X012757Y001788D01*
X012499Y001681D01*
X012301Y001483D01*
X012194Y001225D01*
X012194Y000945D01*
X012301Y000687D01*
X012494Y000494D01*
X010496Y000494D01*
X010507Y000565D01*
X009992Y000565D01*
X009992Y000661D01*
X009896Y000661D01*
X009896Y001176D01*
X009812Y001163D01*
X009727Y001135D01*
X009648Y001095D01*
X009577Y001043D01*
X009514Y000980D01*
X009462Y000908D01*
X009421Y000829D01*
X009394Y000745D01*
X009381Y000661D01*
X009896Y000661D01*
X009896Y000565D01*
X009381Y000565D01*
X009392Y000494D01*
X007394Y000494D01*
X007587Y000687D01*
X007694Y000945D01*
X007694Y001225D01*
X007587Y001483D01*
X007389Y001681D01*
X007131Y001788D01*
X006851Y001788D01*
X006593Y001681D01*
X006401Y001488D01*
X006401Y003116D01*
X006543Y002973D01*
X006834Y002853D01*
X007149Y002853D01*
X007439Y002973D01*
X007662Y003196D01*
X007736Y003375D01*
X008366Y002744D01*
X008467Y002643D01*
X008600Y002588D01*
X008767Y002588D01*
X008911Y002444D01*
X009130Y002354D01*
X009366Y002354D01*
X009585Y002444D01*
X009752Y002611D01*
X009842Y002830D01*
X009842Y003050D01*
X010046Y003050D01*
X010046Y002830D01*
X010136Y002611D01*
X010303Y002444D01*
X010522Y002354D01*
X010758Y002354D01*
X010977Y002444D01*
X011120Y002588D01*
X011288Y002588D01*
X011420Y002643D01*
X011522Y002744D01*
X011522Y002744D01*
X012152Y003375D01*
X012226Y003196D01*
X012449Y002973D01*
X012739Y002853D01*
X013054Y002853D01*
X013345Y002973D01*
X013567Y003196D01*
X013688Y003487D01*
X013688Y003801D01*
X013567Y004092D01*
X013345Y004315D01*
X013054Y004435D01*
X012739Y004435D01*
X012449Y004315D01*
X012272Y004139D01*
X012272Y005015D01*
X012218Y005148D01*
X012116Y005249D01*
X011615Y005750D01*
X011615Y006279D01*
X011578Y006367D01*
X011511Y006435D01*
X011423Y006471D01*
X010827Y006471D01*
X010739Y006435D01*
X010672Y006367D01*
X010635Y006279D01*
X010635Y005183D01*
X010672Y005095D01*
X010739Y005028D01*
X010827Y004991D01*
X011356Y004991D01*
X011552Y004795D01*
X011552Y003793D01*
X011094Y003335D01*
X010977Y003452D01*
X010758Y003542D01*
X010538Y003542D01*
X010538Y003762D01*
X010515Y003819D01*
X010598Y003806D01*
X010602Y003806D01*
X010602Y004302D01*
X010678Y004302D01*
X010678Y004378D01*
X011174Y004378D01*
X011174Y004382D01*
X011161Y004465D01*
X011135Y004545D01*
X011097Y004620D01*
X011047Y004688D01*
X010988Y004748D01*
X010920Y004797D01*
X010845Y004835D01*
X010765Y004861D01*
X010682Y004874D01*
X010678Y004874D01*
X010678Y004378D01*
X010602Y004378D01*
X010602Y004874D01*
X010598Y004874D01*
X010515Y004861D01*
X010435Y004835D01*
X010360Y004797D01*
X010304Y004756D01*
X010304Y005017D01*
X010330Y005028D01*
X010397Y005095D01*
X010434Y005183D01*
X010434Y006279D01*
X010397Y006367D01*
X010330Y006435D01*
X010242Y006471D01*
X009646Y006471D01*
X009558Y006435D01*
X009490Y006367D01*
X009454Y006279D01*
X009454Y005183D01*
X009490Y005095D01*
X009558Y005028D01*
X009584Y005017D01*
X009584Y004844D01*
X009366Y004934D01*
X009130Y004934D01*
X008911Y004844D01*
X008744Y004677D01*
X008654Y004458D01*
X008654Y004222D01*
X008744Y004003D01*
X008911Y003836D01*
X009130Y003746D01*
X009350Y003746D01*
X009350Y003542D01*
X009130Y003542D01*
X008911Y003452D01*
X008794Y003335D01*
X008335Y003793D01*
X008335Y004795D01*
X008532Y004991D01*
X009061Y004991D01*
X009149Y005028D01*
X009216Y005095D01*
X009253Y005183D01*
X009253Y006279D01*
X009216Y006367D01*
X009149Y006435D01*
X009123Y006445D01*
X009123Y006645D01*
X010487Y008009D01*
X011389Y008009D01*
X011366Y007986D01*
X011257Y007723D01*
X011257Y007439D01*
X011366Y007176D01*
X011567Y006975D01*
X011829Y006867D01*
X012114Y006867D01*
X012376Y006975D01*
X012577Y007176D01*
X012686Y007439D01*
X012686Y007723D01*
X012577Y007986D01*
X012554Y008009D01*
X014913Y008009D01*
X015621Y007300D01*
X015621Y007283D01*
X015658Y007195D01*
X015725Y007128D01*
X015814Y007091D01*
X016001Y007091D01*
X016001Y004425D01*
X016036Y004342D01*
X015810Y004435D01*
X015495Y004435D01*
X015204Y004315D01*
X014982Y004092D01*
X014861Y003801D01*
X014861Y003487D01*
X014982Y003196D01*
X015204Y002973D01*
X015495Y002853D01*
X015810Y002853D01*
X016101Y002973D01*
X016323Y003196D01*
X016444Y003487D01*
X016444Y003801D01*
X016371Y003978D01*
X017315Y003033D01*
X017315Y002830D01*
X017406Y002611D01*
X017573Y002444D01*
X017791Y002354D01*
X018028Y002354D01*
X018246Y002444D01*
X018413Y002611D01*
X018504Y002830D01*
X018504Y003050D01*
X018707Y003050D01*
X018707Y002830D01*
X018797Y002611D01*
X018965Y002444D01*
X019183Y002354D01*
X019420Y002354D01*
X019638Y002444D01*
X019805Y002611D01*
X019896Y002830D01*
X019896Y003066D01*
X019805Y003285D01*
X019638Y003452D01*
X019420Y003542D01*
X019200Y003542D01*
X019200Y003762D01*
X019176Y003819D01*
X019259Y003806D01*
X019263Y003806D01*
X019263Y004302D01*
X018767Y004302D01*
X018767Y004298D01*
X018780Y004215D01*
X018780Y004215D01*
X018724Y004238D01*
X018528Y004238D01*
X018793Y004503D01*
X018780Y004465D01*
X018767Y004382D01*
X018767Y004378D01*
X019263Y004378D01*
X019263Y004302D01*
X019339Y004302D01*
X019339Y003806D01*
X019343Y003806D01*
X019426Y003819D01*
X019506Y003845D01*
X019581Y003883D01*
X019649Y003933D01*
X019709Y003992D01*
X019758Y004060D01*
X019796Y004135D01*
X019822Y004215D01*
X019836Y004298D01*
X019836Y004302D01*
X019340Y004302D01*
X019340Y004378D01*
X019836Y004378D01*
X019836Y004382D01*
X019822Y004465D01*
X019796Y004545D01*
X019758Y004620D01*
X019709Y004688D01*
X019649Y004748D01*
X019581Y004797D01*
X019506Y004835D01*
X019426Y004861D01*
X019343Y004874D01*
X019339Y004874D01*
X019339Y004378D01*
X019263Y004378D01*
X019263Y004874D01*
X019259Y004874D01*
X019176Y004861D01*
X019138Y004849D01*
X020266Y005977D01*
X020367Y006078D01*
X020422Y006210D01*
X020422Y007091D01*
X020610Y007091D01*
X020698Y007128D01*
X020765Y007195D01*
X020802Y007283D01*
X020802Y007879D01*
X020765Y007967D01*
X020698Y008035D01*
X020610Y008071D01*
X020422Y008071D01*
X020422Y009346D01*
X020367Y009478D01*
X020266Y009579D01*
X019203Y010642D01*
X019071Y010697D01*
X018927Y010697D01*
X011959Y010697D01*
X011827Y010642D01*
X011726Y010541D01*
X011356Y010171D01*
X010827Y010171D01*
X010739Y010135D01*
X010672Y010067D01*
X010635Y009979D01*
X010635Y008883D01*
X010672Y008795D01*
X010738Y008728D01*
X010487Y008728D01*
X010404Y008811D01*
X010434Y008883D01*
X010434Y009979D01*
X010397Y010067D01*
X010330Y010135D01*
X010242Y010171D01*
X009646Y010171D01*
X009558Y010135D01*
X009490Y010067D01*
X009454Y009979D01*
X009454Y008883D01*
X009490Y008795D01*
X009558Y008728D01*
X009584Y008717D01*
X009584Y008691D01*
X009639Y008558D01*
X009740Y008457D01*
X009829Y008369D01*
X008559Y007099D01*
X008458Y006998D01*
X008403Y006865D01*
X008403Y006445D01*
X008377Y006435D01*
X008309Y006367D01*
X008273Y006279D01*
X008273Y005750D01*
X007771Y005249D01*
X007670Y005148D01*
X007615Y005015D01*
X007615Y004139D01*
X007439Y004315D01*
X007149Y004435D01*
X006834Y004435D01*
X006543Y004315D01*
X006401Y004172D01*
X006401Y010715D01*
X006407Y010724D01*
X006416Y010731D01*
X022133Y010731D01*
X022142Y010724D01*
X022149Y010715D01*
X022143Y010723D02*
X006407Y010723D01*
X006401Y010565D02*
X011749Y010565D01*
X011591Y010406D02*
X006401Y010406D01*
X006401Y010248D02*
X011432Y010248D01*
X010694Y010089D02*
X010375Y010089D01*
X010434Y009930D02*
X010635Y009930D01*
X010635Y009772D02*
X010434Y009772D01*
X010434Y009613D02*
X010635Y009613D01*
X010635Y009455D02*
X010434Y009455D01*
X010434Y009296D02*
X010635Y009296D01*
X010635Y009138D02*
X010434Y009138D01*
X010434Y008979D02*
X010635Y008979D01*
X010661Y008821D02*
X010408Y008821D01*
X009805Y008345D02*
X006401Y008345D01*
X006401Y008186D02*
X007511Y008186D01*
X007512Y008187D02*
X007311Y007986D01*
X007202Y007723D01*
X007202Y007439D01*
X007311Y007176D01*
X007512Y006975D01*
X007774Y006867D01*
X008058Y006867D01*
X008321Y006975D01*
X008522Y007176D01*
X008631Y007439D01*
X008631Y007723D01*
X008522Y007986D01*
X008321Y008187D01*
X008058Y008295D01*
X007774Y008295D01*
X007512Y008187D01*
X007353Y008028D02*
X006401Y008028D01*
X006401Y007869D02*
X007263Y007869D01*
X007202Y007711D02*
X006401Y007711D01*
X006401Y007552D02*
X007202Y007552D01*
X007221Y007394D02*
X006401Y007394D01*
X006401Y007235D02*
X007286Y007235D01*
X007410Y007077D02*
X006401Y007077D01*
X006401Y006918D02*
X007650Y006918D01*
X008183Y006918D02*
X008425Y006918D01*
X008422Y007077D02*
X008537Y007077D01*
X008546Y007235D02*
X008695Y007235D01*
X008612Y007394D02*
X008854Y007394D01*
X009012Y007552D02*
X008631Y007552D01*
X008631Y007711D02*
X009171Y007711D01*
X009329Y007869D02*
X008570Y007869D01*
X008480Y008028D02*
X009488Y008028D01*
X009647Y008186D02*
X008321Y008186D01*
X008489Y008751D02*
X008718Y008751D01*
X008718Y009386D01*
X008808Y009386D01*
X008808Y009476D01*
X009193Y009476D01*
X009193Y009955D01*
X009181Y010001D01*
X009157Y010042D01*
X009123Y010075D01*
X009082Y010099D01*
X009037Y010111D01*
X008808Y010111D01*
X008808Y009476D01*
X008718Y009476D01*
X008718Y010111D01*
X008489Y010111D01*
X008443Y010099D01*
X008402Y010075D01*
X008369Y010042D01*
X008345Y010001D01*
X008333Y009955D01*
X008333Y009476D01*
X008718Y009476D01*
X008718Y009386D01*
X008333Y009386D01*
X008333Y008907D01*
X008345Y008862D01*
X008369Y008821D01*
X006401Y008821D01*
X006401Y008979D02*
X008333Y008979D01*
X008333Y009138D02*
X006401Y009138D01*
X006401Y009296D02*
X008333Y009296D01*
X008333Y009613D02*
X006401Y009613D01*
X006401Y009455D02*
X008718Y009455D01*
X008808Y009455D02*
X009454Y009455D01*
X009454Y009613D02*
X009193Y009613D01*
X009193Y009772D02*
X009454Y009772D01*
X009454Y009930D02*
X009193Y009930D01*
X009099Y010089D02*
X009512Y010089D01*
X008808Y010089D02*
X008718Y010089D01*
X008718Y009930D02*
X008808Y009930D01*
X008808Y009772D02*
X008718Y009772D01*
X008718Y009613D02*
X008808Y009613D01*
X008808Y009386D02*
X009193Y009386D01*
X009193Y008907D01*
X009181Y008862D01*
X009157Y008821D01*
X009480Y008821D01*
X009454Y008979D02*
X009193Y008979D01*
X009193Y009138D02*
X009454Y009138D01*
X009454Y009296D02*
X009193Y009296D01*
X008808Y009296D02*
X008718Y009296D01*
X008808Y009386D02*
X008808Y008751D01*
X009037Y008751D01*
X009082Y008763D01*
X009123Y008787D01*
X009157Y008821D01*
X008808Y008821D02*
X008718Y008821D01*
X008718Y008979D02*
X008808Y008979D01*
X008808Y009138D02*
X008718Y009138D01*
X008489Y008751D02*
X008443Y008763D01*
X008402Y008787D01*
X008369Y008821D01*
X008333Y009772D02*
X006401Y009772D01*
X006401Y009930D02*
X008333Y009930D01*
X008426Y010089D02*
X006401Y010089D01*
X006401Y008662D02*
X009596Y008662D01*
X009693Y008504D02*
X006401Y008504D01*
X006401Y006760D02*
X008403Y006760D01*
X008403Y006601D02*
X006401Y006601D01*
X006401Y006443D02*
X008396Y006443D01*
X008275Y006284D02*
X006401Y006284D01*
X006401Y006125D02*
X008273Y006125D01*
X008273Y005967D02*
X006401Y005967D01*
X006401Y005808D02*
X008273Y005808D01*
X008172Y005650D02*
X006401Y005650D01*
X006401Y005491D02*
X008014Y005491D01*
X007855Y005333D02*
X006401Y005333D01*
X006401Y005174D02*
X007697Y005174D01*
X007616Y005016D02*
X006401Y005016D01*
X006401Y004857D02*
X007615Y004857D01*
X007615Y004699D02*
X006401Y004699D01*
X006401Y004540D02*
X007615Y004540D01*
X007615Y004381D02*
X007278Y004381D01*
X007531Y004223D02*
X007615Y004223D01*
X008335Y004223D02*
X008654Y004223D01*
X008654Y004381D02*
X008335Y004381D01*
X008335Y004540D02*
X008687Y004540D01*
X008766Y004699D02*
X008335Y004699D01*
X008398Y004857D02*
X008943Y004857D01*
X009120Y005016D02*
X009584Y005016D01*
X009584Y004857D02*
X009553Y004857D01*
X009458Y005174D02*
X009249Y005174D01*
X009253Y005333D02*
X009454Y005333D01*
X009454Y005491D02*
X009253Y005491D01*
X009253Y005650D02*
X009454Y005650D01*
X009454Y005808D02*
X009253Y005808D01*
X009253Y005967D02*
X009454Y005967D01*
X009454Y006125D02*
X009253Y006125D01*
X009251Y006284D02*
X009456Y006284D01*
X009577Y006443D02*
X009129Y006443D01*
X009123Y006601D02*
X016001Y006601D01*
X016001Y006443D02*
X011492Y006443D01*
X011613Y006284D02*
X016001Y006284D01*
X016001Y006125D02*
X011615Y006125D01*
X011615Y005967D02*
X016001Y005967D01*
X016001Y005808D02*
X011615Y005808D01*
X011715Y005650D02*
X016001Y005650D01*
X016001Y005491D02*
X011874Y005491D01*
X012032Y005333D02*
X016001Y005333D01*
X016001Y005174D02*
X012191Y005174D01*
X012116Y005249D02*
X012116Y005249D01*
X012272Y005016D02*
X016001Y005016D01*
X016001Y004857D02*
X012272Y004857D01*
X012272Y004699D02*
X016001Y004699D01*
X016001Y004540D02*
X012272Y004540D01*
X012272Y004381D02*
X012609Y004381D01*
X012357Y004223D02*
X012272Y004223D01*
X011552Y004223D02*
X011162Y004223D01*
X011161Y004215D02*
X011174Y004298D01*
X011174Y004302D01*
X010678Y004302D01*
X010678Y003806D01*
X010682Y003806D01*
X010765Y003819D01*
X010845Y003845D01*
X010920Y003883D01*
X010988Y003933D01*
X011047Y003992D01*
X011097Y004060D01*
X011135Y004135D01*
X011161Y004215D01*
X011099Y004064D02*
X011552Y004064D01*
X011552Y003906D02*
X010951Y003906D01*
X010678Y003906D02*
X010602Y003906D01*
X010602Y004064D02*
X010678Y004064D01*
X010678Y004223D02*
X010602Y004223D01*
X010602Y004381D02*
X010678Y004381D01*
X010678Y004540D02*
X010602Y004540D01*
X010602Y004699D02*
X010678Y004699D01*
X010678Y004857D02*
X010602Y004857D01*
X010502Y004857D02*
X010304Y004857D01*
X010304Y005016D02*
X010768Y005016D01*
X010778Y004857D02*
X011490Y004857D01*
X011552Y004699D02*
X011037Y004699D01*
X011137Y004540D02*
X011552Y004540D01*
X011552Y004381D02*
X011174Y004381D01*
X011507Y003747D02*
X010538Y003747D01*
X010538Y003589D02*
X011348Y003589D01*
X011189Y003430D02*
X010998Y003430D01*
X011573Y002796D02*
X017329Y002796D01*
X017315Y002955D02*
X016055Y002955D01*
X016241Y003113D02*
X017235Y003113D01*
X017077Y003272D02*
X016355Y003272D01*
X016420Y003430D02*
X016918Y003430D01*
X016760Y003589D02*
X016444Y003589D01*
X016444Y003747D02*
X016601Y003747D01*
X016443Y003906D02*
X016401Y003906D01*
X016019Y004381D02*
X015940Y004381D01*
X015365Y004381D02*
X013184Y004381D01*
X013437Y004223D02*
X015113Y004223D01*
X014970Y004064D02*
X013579Y004064D01*
X013645Y003906D02*
X014905Y003906D01*
X014861Y003747D02*
X013688Y003747D01*
X013688Y003589D02*
X014861Y003589D01*
X014885Y003430D02*
X013664Y003430D01*
X013599Y003272D02*
X014950Y003272D01*
X015065Y003113D02*
X013485Y003113D01*
X013299Y002955D02*
X015250Y002955D01*
X015268Y001686D02*
X013281Y001686D01*
X013448Y001528D02*
X015102Y001528D01*
X015010Y001369D02*
X013539Y001369D01*
X013599Y001211D02*
X014950Y001211D01*
X014950Y001052D02*
X013599Y001052D01*
X013578Y000894D02*
X014971Y000894D01*
X015037Y000735D02*
X013512Y000735D01*
X013382Y000576D02*
X015168Y000576D01*
X016138Y000576D02*
X018557Y000576D01*
X018654Y000576D02*
X021073Y000576D01*
X020943Y000735D02*
X019157Y000735D01*
X019095Y000894D02*
X020877Y000894D01*
X020856Y001052D02*
X018960Y001052D01*
X018653Y001052D02*
X018557Y001052D01*
X018557Y000894D02*
X018653Y000894D01*
X018653Y000735D02*
X018557Y000735D01*
X018251Y001052D02*
X016355Y001052D01*
X016355Y001211D02*
X020856Y001211D01*
X020915Y001369D02*
X016295Y001369D01*
X016204Y001528D02*
X021007Y001528D01*
X021174Y001686D02*
X016037Y001686D01*
X016334Y000894D02*
X018116Y000894D01*
X018054Y000735D02*
X016268Y000735D01*
X017538Y002479D02*
X011011Y002479D01*
X011407Y002637D02*
X017395Y002637D01*
X018281Y002479D02*
X018930Y002479D01*
X018787Y002637D02*
X018424Y002637D01*
X018490Y002796D02*
X018721Y002796D01*
X018707Y002955D02*
X018504Y002955D01*
X019200Y003589D02*
X020767Y003589D01*
X020767Y003747D02*
X019200Y003747D01*
X019176Y003819D02*
X019176Y003819D01*
X019263Y003906D02*
X019339Y003906D01*
X019339Y004064D02*
X019263Y004064D01*
X019263Y004223D02*
X019339Y004223D01*
X019339Y004381D02*
X019263Y004381D01*
X019263Y004540D02*
X019339Y004540D01*
X019339Y004699D02*
X019263Y004699D01*
X019263Y004857D02*
X019339Y004857D01*
X019439Y004857D02*
X022149Y004857D01*
X022149Y004699D02*
X019698Y004699D01*
X019798Y004540D02*
X022149Y004540D01*
X022149Y004381D02*
X021845Y004381D01*
X022098Y004223D02*
X022149Y004223D01*
X022149Y005016D02*
X019305Y005016D01*
X019164Y004857D02*
X019146Y004857D01*
X019463Y005174D02*
X022149Y005174D01*
X022149Y005333D02*
X019622Y005333D01*
X019781Y005491D02*
X022149Y005491D01*
X022149Y005650D02*
X019939Y005650D01*
X020098Y005808D02*
X022149Y005808D01*
X022149Y005967D02*
X020256Y005967D01*
X020387Y006125D02*
X022149Y006125D01*
X022149Y006284D02*
X020422Y006284D01*
X020422Y006443D02*
X022149Y006443D01*
X022149Y006601D02*
X020422Y006601D01*
X020422Y006760D02*
X022149Y006760D01*
X022149Y006918D02*
X020422Y006918D01*
X020422Y007077D02*
X022149Y007077D01*
X022149Y007235D02*
X020782Y007235D01*
X020802Y007394D02*
X022149Y007394D01*
X022149Y007552D02*
X020802Y007552D01*
X020802Y007711D02*
X022149Y007711D01*
X022149Y007869D02*
X020802Y007869D01*
X020705Y008028D02*
X022149Y008028D01*
X022149Y008186D02*
X020422Y008186D01*
X020422Y008345D02*
X022149Y008345D01*
X022149Y008504D02*
X020422Y008504D01*
X020422Y008662D02*
X022149Y008662D01*
X022149Y008821D02*
X020422Y008821D01*
X020422Y008979D02*
X022149Y008979D01*
X022149Y009138D02*
X020422Y009138D01*
X020422Y009296D02*
X022149Y009296D01*
X022149Y009455D02*
X020377Y009455D01*
X020232Y009613D02*
X022149Y009613D01*
X022149Y009772D02*
X020073Y009772D01*
X019915Y009930D02*
X022149Y009930D01*
X022149Y010089D02*
X019756Y010089D01*
X019598Y010248D02*
X022149Y010248D01*
X022149Y010406D02*
X019439Y010406D01*
X016001Y007077D02*
X012477Y007077D01*
X012601Y007235D02*
X015641Y007235D01*
X015528Y007394D02*
X012667Y007394D01*
X012686Y007552D02*
X015369Y007552D01*
X015211Y007711D02*
X012686Y007711D01*
X012625Y007869D02*
X015052Y007869D01*
X016001Y006918D02*
X012238Y006918D01*
X011705Y006918D02*
X009396Y006918D01*
X009238Y006760D02*
X016001Y006760D01*
X018671Y004381D02*
X018767Y004381D01*
X018761Y004223D02*
X018779Y004223D01*
X019613Y003906D02*
X020810Y003906D01*
X020876Y004064D02*
X019761Y004064D01*
X019824Y004223D02*
X021018Y004223D01*
X021271Y004381D02*
X019836Y004381D01*
X019660Y003430D02*
X020790Y003430D01*
X020856Y003272D02*
X019811Y003272D01*
X019876Y003113D02*
X020970Y003113D01*
X021155Y002955D02*
X019896Y002955D01*
X019882Y002796D02*
X022149Y002796D01*
X022149Y002637D02*
X019816Y002637D01*
X019673Y002479D02*
X022149Y002479D01*
X022149Y002320D02*
X006401Y002320D01*
X006401Y002162D02*
X022149Y002162D01*
X022149Y002003D02*
X006401Y002003D01*
X006401Y001845D02*
X022149Y001845D01*
X022149Y001686D02*
X021943Y001686D01*
X022109Y001528D02*
X022149Y001528D01*
X022149Y002955D02*
X021961Y002955D01*
X022146Y003113D02*
X022149Y003113D01*
X012494Y002955D02*
X011732Y002955D01*
X011891Y003113D02*
X012309Y003113D01*
X012195Y003272D02*
X012049Y003272D01*
X012512Y001686D02*
X007376Y001686D01*
X007542Y001528D02*
X012346Y001528D01*
X012254Y001369D02*
X007634Y001369D01*
X007694Y001211D02*
X012194Y001211D01*
X012194Y001052D02*
X010298Y001052D01*
X010311Y001043D02*
X010239Y001095D01*
X010160Y001135D01*
X010076Y001163D01*
X009992Y001176D01*
X009992Y000661D01*
X010507Y000661D01*
X010494Y000745D01*
X010466Y000829D01*
X010426Y000908D01*
X010374Y000980D01*
X010311Y001043D01*
X010434Y000894D02*
X012216Y000894D01*
X012281Y000735D02*
X010495Y000735D01*
X009992Y000735D02*
X009896Y000735D01*
X009896Y000894D02*
X009992Y000894D01*
X009992Y001052D02*
X009896Y001052D01*
X009590Y001052D02*
X007694Y001052D01*
X007672Y000894D02*
X009454Y000894D01*
X009392Y000735D02*
X007607Y000735D01*
X007476Y000576D02*
X009896Y000576D01*
X009992Y000576D02*
X012412Y000576D01*
X010269Y002479D02*
X009619Y002479D01*
X009763Y002637D02*
X010125Y002637D01*
X010060Y002796D02*
X009828Y002796D01*
X009842Y002955D02*
X010046Y002955D01*
X009350Y003589D02*
X008540Y003589D01*
X008381Y003747D02*
X009126Y003747D01*
X008842Y003906D02*
X008335Y003906D01*
X008335Y004064D02*
X008719Y004064D01*
X008698Y003430D02*
X008890Y003430D01*
X008314Y002796D02*
X006401Y002796D01*
X006401Y002637D02*
X008481Y002637D01*
X008877Y002479D02*
X006401Y002479D01*
X006401Y002955D02*
X006588Y002955D01*
X006403Y003113D02*
X006401Y003113D01*
X007394Y002955D02*
X008156Y002955D01*
X007997Y003113D02*
X007579Y003113D01*
X007693Y003272D02*
X007839Y003272D01*
X006704Y004381D02*
X006401Y004381D01*
X006401Y004223D02*
X006451Y004223D01*
X006401Y001686D02*
X006607Y001686D01*
X006440Y001528D02*
X006401Y001528D01*
X010430Y005174D02*
X010639Y005174D01*
X010635Y005333D02*
X010434Y005333D01*
X010434Y005491D02*
X010635Y005491D01*
X010635Y005650D02*
X010434Y005650D01*
X010434Y005808D02*
X010635Y005808D01*
X010635Y005967D02*
X010434Y005967D01*
X010434Y006125D02*
X010635Y006125D01*
X010637Y006284D02*
X010432Y006284D01*
X010311Y006443D02*
X010758Y006443D01*
X011466Y007077D02*
X009555Y007077D01*
X009713Y007235D02*
X011341Y007235D01*
X011276Y007394D02*
X009872Y007394D01*
X010031Y007552D02*
X011257Y007552D01*
X011257Y007711D02*
X010189Y007711D01*
X010348Y007869D02*
X011318Y007869D01*
M02*
