%
M48
M72
T01C0.0472
T02C0.0512
T03C0.0925
T04C0.0949
T05C0.1102
%
T01
X9248Y2948
X9944Y3644
X10640Y4340
X9248Y4340
X10640Y2948
X17909Y2948
X18605Y3644
X17909Y4340
X19301Y4340
X19301Y2948
T02
X18605Y613
X9944Y613
T03
X6991Y1085
X12897Y1085
X15653Y1085
X21558Y1085
T04
X11971Y7581
X7916Y7581
T05
X6991Y3644
X12897Y3644
X15653Y3644
X21558Y3644
M30
