G75*
G70*
%OFA0B0*%
%FSLAX24Y24*%
%IPPOS*%
%LPD*%
%AMOC8*
5,1,8,0,0,1.08239X$1,22.5*
%
%ADD10C,0.0000*%
%ADD11C,0.0709*%
%ADD12C,0.0768*%
%ADD13C,0.0320*%
%ADD14C,0.0376*%
%ADD15C,0.0160*%
D10*
X006007Y000888D02*
X006007Y010337D01*
X006009Y010391D01*
X006014Y010444D01*
X006023Y010497D01*
X006036Y010549D01*
X006052Y010601D01*
X006072Y010651D01*
X006095Y010699D01*
X006122Y010746D01*
X006151Y010791D01*
X006184Y010834D01*
X006219Y010874D01*
X006257Y010912D01*
X006297Y010947D01*
X006340Y010980D01*
X006385Y011009D01*
X006432Y011036D01*
X006480Y011059D01*
X006530Y011079D01*
X006582Y011095D01*
X006634Y011108D01*
X006687Y011117D01*
X006740Y011122D01*
X006794Y011124D01*
X021755Y011124D01*
X021809Y011122D01*
X021862Y011117D01*
X021915Y011108D01*
X021967Y011095D01*
X022019Y011079D01*
X022069Y011059D01*
X022117Y011036D01*
X022164Y011009D01*
X022209Y010980D01*
X022252Y010947D01*
X022292Y010912D01*
X022330Y010874D01*
X022365Y010834D01*
X022398Y010791D01*
X022427Y010746D01*
X022454Y010699D01*
X022477Y010651D01*
X022497Y010601D01*
X022513Y010549D01*
X022526Y010497D01*
X022535Y010444D01*
X022540Y010391D01*
X022542Y010337D01*
X022542Y000888D01*
X022540Y000834D01*
X022535Y000781D01*
X022526Y000728D01*
X022513Y000676D01*
X022497Y000624D01*
X022477Y000574D01*
X022454Y000526D01*
X022427Y000479D01*
X022398Y000434D01*
X022365Y000391D01*
X022330Y000351D01*
X022292Y000313D01*
X022252Y000278D01*
X022209Y000245D01*
X022164Y000216D01*
X022117Y000189D01*
X022069Y000166D01*
X022019Y000146D01*
X021967Y000130D01*
X021915Y000117D01*
X021862Y000108D01*
X021809Y000103D01*
X021755Y000101D01*
X006794Y000101D01*
X006740Y000103D01*
X006687Y000108D01*
X006634Y000117D01*
X006582Y000130D01*
X006530Y000146D01*
X006480Y000166D01*
X006432Y000189D01*
X006385Y000216D01*
X006340Y000245D01*
X006297Y000278D01*
X006257Y000313D01*
X006219Y000351D01*
X006184Y000391D01*
X006151Y000434D01*
X006122Y000479D01*
X006095Y000526D01*
X006072Y000574D01*
X006052Y000624D01*
X006036Y000676D01*
X006023Y000728D01*
X006014Y000781D01*
X006009Y000834D01*
X006007Y000888D01*
X006528Y001085D02*
X006530Y001128D01*
X006536Y001170D01*
X006546Y001212D01*
X006559Y001252D01*
X006577Y001291D01*
X006597Y001329D01*
X006622Y001364D01*
X006649Y001397D01*
X006679Y001427D01*
X006712Y001454D01*
X006747Y001479D01*
X006785Y001499D01*
X006824Y001517D01*
X006864Y001530D01*
X006906Y001540D01*
X006948Y001546D01*
X006991Y001548D01*
X007034Y001546D01*
X007076Y001540D01*
X007118Y001530D01*
X007158Y001517D01*
X007197Y001499D01*
X007235Y001479D01*
X007270Y001454D01*
X007303Y001427D01*
X007333Y001397D01*
X007360Y001364D01*
X007385Y001329D01*
X007405Y001291D01*
X007423Y001252D01*
X007436Y001212D01*
X007446Y001170D01*
X007452Y001128D01*
X007454Y001085D01*
X007452Y001042D01*
X007446Y001000D01*
X007436Y000958D01*
X007423Y000918D01*
X007405Y000879D01*
X007385Y000841D01*
X007360Y000806D01*
X007333Y000773D01*
X007303Y000743D01*
X007270Y000716D01*
X007235Y000691D01*
X007197Y000671D01*
X007158Y000653D01*
X007118Y000640D01*
X007076Y000630D01*
X007034Y000624D01*
X006991Y000622D01*
X006948Y000624D01*
X006906Y000630D01*
X006864Y000640D01*
X006824Y000653D01*
X006785Y000671D01*
X006747Y000691D01*
X006712Y000716D01*
X006679Y000743D01*
X006649Y000773D01*
X006622Y000806D01*
X006597Y000841D01*
X006577Y000879D01*
X006559Y000918D01*
X006546Y000958D01*
X006536Y001000D01*
X006530Y001042D01*
X006528Y001085D01*
X006440Y003644D02*
X006442Y003691D01*
X006448Y003737D01*
X006458Y003783D01*
X006471Y003828D01*
X006489Y003871D01*
X006510Y003913D01*
X006534Y003953D01*
X006562Y003990D01*
X006593Y004025D01*
X006627Y004058D01*
X006663Y004087D01*
X006702Y004113D01*
X006743Y004136D01*
X006786Y004155D01*
X006830Y004171D01*
X006875Y004183D01*
X006921Y004191D01*
X006968Y004195D01*
X007014Y004195D01*
X007061Y004191D01*
X007107Y004183D01*
X007152Y004171D01*
X007196Y004155D01*
X007239Y004136D01*
X007280Y004113D01*
X007319Y004087D01*
X007355Y004058D01*
X007389Y004025D01*
X007420Y003990D01*
X007448Y003953D01*
X007472Y003913D01*
X007493Y003871D01*
X007511Y003828D01*
X007524Y003783D01*
X007534Y003737D01*
X007540Y003691D01*
X007542Y003644D01*
X007540Y003597D01*
X007534Y003551D01*
X007524Y003505D01*
X007511Y003460D01*
X007493Y003417D01*
X007472Y003375D01*
X007448Y003335D01*
X007420Y003298D01*
X007389Y003263D01*
X007355Y003230D01*
X007319Y003201D01*
X007280Y003175D01*
X007239Y003152D01*
X007196Y003133D01*
X007152Y003117D01*
X007107Y003105D01*
X007061Y003097D01*
X007014Y003093D01*
X006968Y003093D01*
X006921Y003097D01*
X006875Y003105D01*
X006830Y003117D01*
X006786Y003133D01*
X006743Y003152D01*
X006702Y003175D01*
X006663Y003201D01*
X006627Y003230D01*
X006593Y003263D01*
X006562Y003298D01*
X006534Y003335D01*
X006510Y003375D01*
X006489Y003417D01*
X006471Y003460D01*
X006458Y003505D01*
X006448Y003551D01*
X006442Y003597D01*
X006440Y003644D01*
X012346Y003644D02*
X012348Y003691D01*
X012354Y003737D01*
X012364Y003783D01*
X012377Y003828D01*
X012395Y003871D01*
X012416Y003913D01*
X012440Y003953D01*
X012468Y003990D01*
X012499Y004025D01*
X012533Y004058D01*
X012569Y004087D01*
X012608Y004113D01*
X012649Y004136D01*
X012692Y004155D01*
X012736Y004171D01*
X012781Y004183D01*
X012827Y004191D01*
X012874Y004195D01*
X012920Y004195D01*
X012967Y004191D01*
X013013Y004183D01*
X013058Y004171D01*
X013102Y004155D01*
X013145Y004136D01*
X013186Y004113D01*
X013225Y004087D01*
X013261Y004058D01*
X013295Y004025D01*
X013326Y003990D01*
X013354Y003953D01*
X013378Y003913D01*
X013399Y003871D01*
X013417Y003828D01*
X013430Y003783D01*
X013440Y003737D01*
X013446Y003691D01*
X013448Y003644D01*
X013446Y003597D01*
X013440Y003551D01*
X013430Y003505D01*
X013417Y003460D01*
X013399Y003417D01*
X013378Y003375D01*
X013354Y003335D01*
X013326Y003298D01*
X013295Y003263D01*
X013261Y003230D01*
X013225Y003201D01*
X013186Y003175D01*
X013145Y003152D01*
X013102Y003133D01*
X013058Y003117D01*
X013013Y003105D01*
X012967Y003097D01*
X012920Y003093D01*
X012874Y003093D01*
X012827Y003097D01*
X012781Y003105D01*
X012736Y003117D01*
X012692Y003133D01*
X012649Y003152D01*
X012608Y003175D01*
X012569Y003201D01*
X012533Y003230D01*
X012499Y003263D01*
X012468Y003298D01*
X012440Y003335D01*
X012416Y003375D01*
X012395Y003417D01*
X012377Y003460D01*
X012364Y003505D01*
X012354Y003551D01*
X012348Y003597D01*
X012346Y003644D01*
X012434Y001085D02*
X012436Y001128D01*
X012442Y001170D01*
X012452Y001212D01*
X012465Y001252D01*
X012483Y001291D01*
X012503Y001329D01*
X012528Y001364D01*
X012555Y001397D01*
X012585Y001427D01*
X012618Y001454D01*
X012653Y001479D01*
X012691Y001499D01*
X012730Y001517D01*
X012770Y001530D01*
X012812Y001540D01*
X012854Y001546D01*
X012897Y001548D01*
X012940Y001546D01*
X012982Y001540D01*
X013024Y001530D01*
X013064Y001517D01*
X013103Y001499D01*
X013141Y001479D01*
X013176Y001454D01*
X013209Y001427D01*
X013239Y001397D01*
X013266Y001364D01*
X013291Y001329D01*
X013311Y001291D01*
X013329Y001252D01*
X013342Y001212D01*
X013352Y001170D01*
X013358Y001128D01*
X013360Y001085D01*
X013358Y001042D01*
X013352Y001000D01*
X013342Y000958D01*
X013329Y000918D01*
X013311Y000879D01*
X013291Y000841D01*
X013266Y000806D01*
X013239Y000773D01*
X013209Y000743D01*
X013176Y000716D01*
X013141Y000691D01*
X013103Y000671D01*
X013064Y000653D01*
X013024Y000640D01*
X012982Y000630D01*
X012940Y000624D01*
X012897Y000622D01*
X012854Y000624D01*
X012812Y000630D01*
X012770Y000640D01*
X012730Y000653D01*
X012691Y000671D01*
X012653Y000691D01*
X012618Y000716D01*
X012585Y000743D01*
X012555Y000773D01*
X012528Y000806D01*
X012503Y000841D01*
X012483Y000879D01*
X012465Y000918D01*
X012452Y000958D01*
X012442Y001000D01*
X012436Y001042D01*
X012434Y001085D01*
X015190Y001085D02*
X015192Y001128D01*
X015198Y001170D01*
X015208Y001212D01*
X015221Y001252D01*
X015239Y001291D01*
X015259Y001329D01*
X015284Y001364D01*
X015311Y001397D01*
X015341Y001427D01*
X015374Y001454D01*
X015409Y001479D01*
X015447Y001499D01*
X015486Y001517D01*
X015526Y001530D01*
X015568Y001540D01*
X015610Y001546D01*
X015653Y001548D01*
X015696Y001546D01*
X015738Y001540D01*
X015780Y001530D01*
X015820Y001517D01*
X015859Y001499D01*
X015897Y001479D01*
X015932Y001454D01*
X015965Y001427D01*
X015995Y001397D01*
X016022Y001364D01*
X016047Y001329D01*
X016067Y001291D01*
X016085Y001252D01*
X016098Y001212D01*
X016108Y001170D01*
X016114Y001128D01*
X016116Y001085D01*
X016114Y001042D01*
X016108Y001000D01*
X016098Y000958D01*
X016085Y000918D01*
X016067Y000879D01*
X016047Y000841D01*
X016022Y000806D01*
X015995Y000773D01*
X015965Y000743D01*
X015932Y000716D01*
X015897Y000691D01*
X015859Y000671D01*
X015820Y000653D01*
X015780Y000640D01*
X015738Y000630D01*
X015696Y000624D01*
X015653Y000622D01*
X015610Y000624D01*
X015568Y000630D01*
X015526Y000640D01*
X015486Y000653D01*
X015447Y000671D01*
X015409Y000691D01*
X015374Y000716D01*
X015341Y000743D01*
X015311Y000773D01*
X015284Y000806D01*
X015259Y000841D01*
X015239Y000879D01*
X015221Y000918D01*
X015208Y000958D01*
X015198Y001000D01*
X015192Y001042D01*
X015190Y001085D01*
X015102Y003644D02*
X015104Y003691D01*
X015110Y003737D01*
X015120Y003783D01*
X015133Y003828D01*
X015151Y003871D01*
X015172Y003913D01*
X015196Y003953D01*
X015224Y003990D01*
X015255Y004025D01*
X015289Y004058D01*
X015325Y004087D01*
X015364Y004113D01*
X015405Y004136D01*
X015448Y004155D01*
X015492Y004171D01*
X015537Y004183D01*
X015583Y004191D01*
X015630Y004195D01*
X015676Y004195D01*
X015723Y004191D01*
X015769Y004183D01*
X015814Y004171D01*
X015858Y004155D01*
X015901Y004136D01*
X015942Y004113D01*
X015981Y004087D01*
X016017Y004058D01*
X016051Y004025D01*
X016082Y003990D01*
X016110Y003953D01*
X016134Y003913D01*
X016155Y003871D01*
X016173Y003828D01*
X016186Y003783D01*
X016196Y003737D01*
X016202Y003691D01*
X016204Y003644D01*
X016202Y003597D01*
X016196Y003551D01*
X016186Y003505D01*
X016173Y003460D01*
X016155Y003417D01*
X016134Y003375D01*
X016110Y003335D01*
X016082Y003298D01*
X016051Y003263D01*
X016017Y003230D01*
X015981Y003201D01*
X015942Y003175D01*
X015901Y003152D01*
X015858Y003133D01*
X015814Y003117D01*
X015769Y003105D01*
X015723Y003097D01*
X015676Y003093D01*
X015630Y003093D01*
X015583Y003097D01*
X015537Y003105D01*
X015492Y003117D01*
X015448Y003133D01*
X015405Y003152D01*
X015364Y003175D01*
X015325Y003201D01*
X015289Y003230D01*
X015255Y003263D01*
X015224Y003298D01*
X015196Y003335D01*
X015172Y003375D01*
X015151Y003417D01*
X015133Y003460D01*
X015120Y003505D01*
X015110Y003551D01*
X015104Y003597D01*
X015102Y003644D01*
X021007Y003644D02*
X021009Y003691D01*
X021015Y003737D01*
X021025Y003783D01*
X021038Y003828D01*
X021056Y003871D01*
X021077Y003913D01*
X021101Y003953D01*
X021129Y003990D01*
X021160Y004025D01*
X021194Y004058D01*
X021230Y004087D01*
X021269Y004113D01*
X021310Y004136D01*
X021353Y004155D01*
X021397Y004171D01*
X021442Y004183D01*
X021488Y004191D01*
X021535Y004195D01*
X021581Y004195D01*
X021628Y004191D01*
X021674Y004183D01*
X021719Y004171D01*
X021763Y004155D01*
X021806Y004136D01*
X021847Y004113D01*
X021886Y004087D01*
X021922Y004058D01*
X021956Y004025D01*
X021987Y003990D01*
X022015Y003953D01*
X022039Y003913D01*
X022060Y003871D01*
X022078Y003828D01*
X022091Y003783D01*
X022101Y003737D01*
X022107Y003691D01*
X022109Y003644D01*
X022107Y003597D01*
X022101Y003551D01*
X022091Y003505D01*
X022078Y003460D01*
X022060Y003417D01*
X022039Y003375D01*
X022015Y003335D01*
X021987Y003298D01*
X021956Y003263D01*
X021922Y003230D01*
X021886Y003201D01*
X021847Y003175D01*
X021806Y003152D01*
X021763Y003133D01*
X021719Y003117D01*
X021674Y003105D01*
X021628Y003097D01*
X021581Y003093D01*
X021535Y003093D01*
X021488Y003097D01*
X021442Y003105D01*
X021397Y003117D01*
X021353Y003133D01*
X021310Y003152D01*
X021269Y003175D01*
X021230Y003201D01*
X021194Y003230D01*
X021160Y003263D01*
X021129Y003298D01*
X021101Y003335D01*
X021077Y003375D01*
X021056Y003417D01*
X021038Y003460D01*
X021025Y003505D01*
X021015Y003551D01*
X021009Y003597D01*
X021007Y003644D01*
X021095Y001085D02*
X021097Y001128D01*
X021103Y001170D01*
X021113Y001212D01*
X021126Y001252D01*
X021144Y001291D01*
X021164Y001329D01*
X021189Y001364D01*
X021216Y001397D01*
X021246Y001427D01*
X021279Y001454D01*
X021314Y001479D01*
X021352Y001499D01*
X021391Y001517D01*
X021431Y001530D01*
X021473Y001540D01*
X021515Y001546D01*
X021558Y001548D01*
X021601Y001546D01*
X021643Y001540D01*
X021685Y001530D01*
X021725Y001517D01*
X021764Y001499D01*
X021802Y001479D01*
X021837Y001454D01*
X021870Y001427D01*
X021900Y001397D01*
X021927Y001364D01*
X021952Y001329D01*
X021972Y001291D01*
X021990Y001252D01*
X022003Y001212D01*
X022013Y001170D01*
X022019Y001128D01*
X022021Y001085D01*
X022019Y001042D01*
X022013Y001000D01*
X022003Y000958D01*
X021990Y000918D01*
X021972Y000879D01*
X021952Y000841D01*
X021927Y000806D01*
X021900Y000773D01*
X021870Y000743D01*
X021837Y000716D01*
X021802Y000691D01*
X021764Y000671D01*
X021725Y000653D01*
X021685Y000640D01*
X021643Y000630D01*
X021601Y000624D01*
X021558Y000622D01*
X021515Y000624D01*
X021473Y000630D01*
X021431Y000640D01*
X021391Y000653D01*
X021352Y000671D01*
X021314Y000691D01*
X021279Y000716D01*
X021246Y000743D01*
X021216Y000773D01*
X021189Y000806D01*
X021164Y000841D01*
X021144Y000879D01*
X021126Y000918D01*
X021113Y000958D01*
X021103Y001000D01*
X021097Y001042D01*
X021095Y001085D01*
D11*
X019301Y002948D03*
X018605Y003644D03*
X017909Y004340D03*
X019301Y004340D03*
X017909Y002948D03*
X010640Y002948D03*
X009944Y003644D03*
X010640Y004340D03*
X009248Y004340D03*
X009248Y002948D03*
D12*
X009944Y000613D03*
X018605Y000613D03*
D13*
X018448Y002069D02*
X017031Y002069D01*
X016637Y002463D01*
X011125Y002463D01*
X010640Y002948D01*
X011125Y003644D02*
X009944Y003644D01*
X009248Y004340D02*
X009248Y007279D01*
X010731Y008762D01*
X019393Y008762D01*
X017909Y007279D01*
X017909Y004340D01*
X017424Y003644D02*
X018605Y003644D01*
X019301Y002948D02*
X019301Y002923D01*
X018448Y002069D01*
X017424Y003644D02*
X015849Y005219D01*
X012700Y005219D01*
X011125Y003644D01*
D14*
X010731Y008762D03*
X019393Y008762D03*
D15*
X019567Y008371D02*
X019635Y008399D01*
X019756Y008520D01*
X019821Y008677D01*
X019821Y008847D01*
X019756Y009005D01*
X019635Y009125D01*
X019478Y009190D01*
X019308Y009190D01*
X019240Y009162D01*
X010884Y009162D01*
X010816Y009190D01*
X010646Y009190D01*
X010489Y009125D01*
X010368Y009005D01*
X010340Y008937D01*
X009021Y007618D01*
X008909Y007505D01*
X008848Y007358D01*
X008848Y004781D01*
X008744Y004677D01*
X008654Y004458D01*
X008654Y004222D01*
X008744Y004003D01*
X008911Y003836D01*
X009130Y003746D01*
X009350Y003746D01*
X009350Y003542D01*
X009130Y003542D01*
X008911Y003452D01*
X008744Y003285D01*
X008654Y003066D01*
X008654Y002830D01*
X008744Y002611D01*
X008911Y002444D01*
X009130Y002354D01*
X009366Y002354D01*
X009585Y002444D01*
X009752Y002611D01*
X009842Y002830D01*
X009842Y003050D01*
X010046Y003050D01*
X010046Y002830D01*
X010136Y002611D01*
X010303Y002444D01*
X010522Y002354D01*
X010669Y002354D01*
X010898Y002124D01*
X011045Y002063D01*
X011205Y002063D01*
X016471Y002063D01*
X016691Y001843D01*
X016804Y001730D01*
X016951Y001669D01*
X018368Y001669D01*
X018527Y001669D01*
X018674Y001730D01*
X019298Y002354D01*
X019420Y002354D01*
X019638Y002444D01*
X019805Y002611D01*
X019896Y002830D01*
X019896Y003066D01*
X019805Y003285D01*
X019638Y003452D01*
X019420Y003542D01*
X019200Y003542D01*
X019200Y003762D01*
X019176Y003819D01*
X019259Y003806D01*
X019263Y003806D01*
X019263Y004302D01*
X018767Y004302D01*
X018767Y004298D01*
X018780Y004215D01*
X018780Y004215D01*
X018724Y004238D01*
X018504Y004238D01*
X018504Y004458D01*
X018413Y004677D01*
X018309Y004781D01*
X018309Y007113D01*
X019567Y008371D01*
X019541Y008345D02*
X022149Y008345D01*
X022149Y008186D02*
X019383Y008186D01*
X019224Y008028D02*
X022149Y008028D01*
X022149Y007869D02*
X019066Y007869D01*
X018907Y007711D02*
X022149Y007711D01*
X022149Y007552D02*
X018749Y007552D01*
X018590Y007394D02*
X022149Y007394D01*
X022149Y007235D02*
X018431Y007235D01*
X018309Y007077D02*
X022149Y007077D01*
X022149Y006918D02*
X018309Y006918D01*
X018309Y006760D02*
X022149Y006760D01*
X022149Y006601D02*
X018309Y006601D01*
X018309Y006443D02*
X022149Y006443D01*
X022149Y006284D02*
X018309Y006284D01*
X018309Y006125D02*
X022149Y006125D01*
X022149Y005967D02*
X018309Y005967D01*
X018309Y005808D02*
X022149Y005808D01*
X022149Y005650D02*
X018309Y005650D01*
X018309Y005491D02*
X022149Y005491D01*
X022149Y005333D02*
X018309Y005333D01*
X018309Y005174D02*
X022149Y005174D01*
X022149Y005016D02*
X018309Y005016D01*
X018309Y004857D02*
X019163Y004857D01*
X019176Y004861D02*
X019096Y004835D01*
X019021Y004797D01*
X018953Y004748D01*
X018894Y004688D01*
X018844Y004620D01*
X018806Y004545D01*
X018780Y004465D01*
X018767Y004382D01*
X018767Y004378D01*
X019263Y004378D01*
X019263Y004302D01*
X019339Y004302D01*
X019339Y003806D01*
X019343Y003806D01*
X019426Y003819D01*
X019506Y003845D01*
X019581Y003883D01*
X019649Y003933D01*
X019709Y003992D01*
X019758Y004060D01*
X019796Y004135D01*
X019822Y004215D01*
X019836Y004298D01*
X019836Y004302D01*
X019340Y004302D01*
X019340Y004378D01*
X019836Y004378D01*
X019836Y004382D01*
X019822Y004465D01*
X019796Y004545D01*
X019758Y004620D01*
X019709Y004688D01*
X019649Y004748D01*
X019581Y004797D01*
X019506Y004835D01*
X019426Y004861D01*
X019343Y004874D01*
X019339Y004874D01*
X019339Y004378D01*
X019263Y004378D01*
X019263Y004874D01*
X019259Y004874D01*
X019176Y004861D01*
X019263Y004857D02*
X019339Y004857D01*
X019439Y004857D02*
X022149Y004857D01*
X022149Y004699D02*
X019698Y004699D01*
X019798Y004540D02*
X022149Y004540D01*
X022149Y004381D02*
X021845Y004381D01*
X021715Y004435D02*
X021401Y004435D01*
X021110Y004315D01*
X020887Y004092D01*
X020767Y003801D01*
X020767Y003487D01*
X020887Y003196D01*
X021110Y002973D01*
X021401Y002853D01*
X021715Y002853D01*
X022006Y002973D01*
X022149Y003116D01*
X022149Y001488D01*
X021956Y001681D01*
X021698Y001788D01*
X021418Y001788D01*
X021160Y001681D01*
X020962Y001483D01*
X020856Y001225D01*
X020856Y000945D01*
X020962Y000687D01*
X021155Y000494D01*
X019157Y000494D01*
X019169Y000565D01*
X018654Y000565D01*
X018654Y000661D01*
X019169Y000661D01*
X019155Y000745D01*
X019128Y000829D01*
X019088Y000908D01*
X019035Y000980D01*
X018973Y001043D01*
X018901Y001095D01*
X018822Y001135D01*
X018737Y001163D01*
X018653Y001176D01*
X018653Y000661D01*
X018557Y000661D01*
X018557Y001176D01*
X018473Y001163D01*
X018389Y001135D01*
X018310Y001095D01*
X018238Y001043D01*
X018175Y000980D01*
X018123Y000908D01*
X018083Y000829D01*
X018055Y000745D01*
X018042Y000661D01*
X018557Y000661D01*
X018557Y000565D01*
X018042Y000565D01*
X018053Y000494D01*
X016056Y000494D01*
X016248Y000687D01*
X016355Y000945D01*
X016355Y001225D01*
X016248Y001483D01*
X016051Y001681D01*
X015792Y001788D01*
X015513Y001788D01*
X015255Y001681D01*
X015057Y001483D01*
X014950Y001225D01*
X014950Y000945D01*
X015057Y000687D01*
X015250Y000494D01*
X013300Y000494D01*
X013492Y000687D01*
X013599Y000945D01*
X013599Y001225D01*
X013492Y001483D01*
X013295Y001681D01*
X013036Y001788D01*
X012757Y001788D01*
X012499Y001681D01*
X012301Y001483D01*
X012194Y001225D01*
X012194Y000945D01*
X012301Y000687D01*
X012494Y000494D01*
X010496Y000494D01*
X010507Y000565D01*
X009992Y000565D01*
X009992Y000661D01*
X009896Y000661D01*
X009896Y001176D01*
X009812Y001163D01*
X009727Y001135D01*
X009648Y001095D01*
X009577Y001043D01*
X009514Y000980D01*
X009462Y000908D01*
X009421Y000829D01*
X009394Y000745D01*
X009381Y000661D01*
X009896Y000661D01*
X009896Y000565D01*
X009381Y000565D01*
X009392Y000494D01*
X007394Y000494D01*
X007587Y000687D01*
X007694Y000945D01*
X007694Y001225D01*
X007587Y001483D01*
X007389Y001681D01*
X007131Y001788D01*
X006851Y001788D01*
X006593Y001681D01*
X006401Y001488D01*
X006401Y003116D01*
X006543Y002973D01*
X006834Y002853D01*
X007149Y002853D01*
X007439Y002973D01*
X007662Y003196D01*
X007782Y003487D01*
X007782Y003801D01*
X007662Y004092D01*
X007439Y004315D01*
X007149Y004435D01*
X006834Y004435D01*
X006543Y004315D01*
X006401Y004172D01*
X006401Y010715D01*
X006407Y010724D01*
X006416Y010731D01*
X022133Y010731D01*
X022142Y010724D01*
X022149Y010715D01*
X022149Y004172D01*
X022006Y004315D01*
X021715Y004435D01*
X022098Y004223D02*
X022149Y004223D01*
X021271Y004381D02*
X019836Y004381D01*
X019824Y004223D02*
X021018Y004223D01*
X020876Y004064D02*
X019761Y004064D01*
X019613Y003906D02*
X020810Y003906D01*
X020767Y003747D02*
X019200Y003747D01*
X019176Y003819D02*
X019176Y003819D01*
X019263Y003906D02*
X019339Y003906D01*
X019339Y004064D02*
X019263Y004064D01*
X019263Y004223D02*
X019339Y004223D01*
X019339Y004381D02*
X019263Y004381D01*
X019263Y004540D02*
X019339Y004540D01*
X019339Y004699D02*
X019263Y004699D01*
X018904Y004699D02*
X018391Y004699D01*
X018470Y004540D02*
X018804Y004540D01*
X018767Y004381D02*
X018504Y004381D01*
X018761Y004223D02*
X018779Y004223D01*
X019200Y003589D02*
X020767Y003589D01*
X020790Y003430D02*
X019660Y003430D01*
X019811Y003272D02*
X020856Y003272D01*
X020970Y003113D02*
X019876Y003113D01*
X019896Y002955D02*
X021155Y002955D01*
X021961Y002955D02*
X022149Y002955D01*
X022146Y003113D02*
X022149Y003113D01*
X022149Y002796D02*
X019882Y002796D01*
X019816Y002637D02*
X022149Y002637D01*
X022149Y002479D02*
X019673Y002479D01*
X019265Y002320D02*
X022149Y002320D01*
X022149Y002162D02*
X019106Y002162D01*
X018948Y002003D02*
X022149Y002003D01*
X022149Y001845D02*
X018789Y001845D01*
X018568Y001686D02*
X021174Y001686D01*
X021007Y001528D02*
X016204Y001528D01*
X016295Y001369D02*
X020915Y001369D01*
X020856Y001211D02*
X016355Y001211D01*
X016355Y001052D02*
X018251Y001052D01*
X018116Y000894D02*
X016334Y000894D01*
X016268Y000735D02*
X018054Y000735D01*
X018557Y000735D02*
X018653Y000735D01*
X018653Y000894D02*
X018557Y000894D01*
X018557Y001052D02*
X018653Y001052D01*
X018960Y001052D02*
X020856Y001052D01*
X020877Y000894D02*
X019095Y000894D01*
X019157Y000735D02*
X020943Y000735D01*
X021073Y000576D02*
X018654Y000576D01*
X018557Y000576D02*
X016138Y000576D01*
X015168Y000576D02*
X013382Y000576D01*
X013512Y000735D02*
X015037Y000735D01*
X014971Y000894D02*
X013578Y000894D01*
X013599Y001052D02*
X014950Y001052D01*
X014950Y001211D02*
X013599Y001211D01*
X013539Y001369D02*
X015010Y001369D01*
X015102Y001528D02*
X013448Y001528D01*
X013281Y001686D02*
X015268Y001686D01*
X016037Y001686D02*
X016910Y001686D01*
X016689Y001845D02*
X006401Y001845D01*
X006401Y002003D02*
X016531Y002003D01*
X017315Y004319D02*
X016076Y005558D01*
X015929Y005619D01*
X015770Y005619D01*
X012620Y005619D01*
X012473Y005558D01*
X012361Y005445D01*
X011167Y004252D01*
X011174Y004298D01*
X011174Y004302D01*
X010678Y004302D01*
X010678Y004378D01*
X011174Y004378D01*
X011174Y004382D01*
X011161Y004465D01*
X011135Y004545D01*
X011097Y004620D01*
X011047Y004688D01*
X010988Y004748D01*
X010920Y004797D01*
X010845Y004835D01*
X010765Y004861D01*
X010682Y004874D01*
X010678Y004874D01*
X010678Y004378D01*
X010602Y004378D01*
X010602Y004302D01*
X010106Y004302D01*
X010106Y004298D01*
X010119Y004215D01*
X010062Y004238D01*
X009842Y004238D01*
X009842Y004458D01*
X009752Y004677D01*
X009648Y004781D01*
X009648Y007113D01*
X010897Y008362D01*
X018427Y008362D01*
X017570Y007505D01*
X017509Y007358D01*
X017509Y007199D01*
X017509Y004781D01*
X017406Y004677D01*
X017315Y004458D01*
X017315Y004319D01*
X017315Y004381D02*
X017253Y004381D01*
X017349Y004540D02*
X017094Y004540D01*
X016935Y004699D02*
X017427Y004699D01*
X017509Y004857D02*
X016777Y004857D01*
X016618Y005016D02*
X017509Y005016D01*
X017509Y005174D02*
X016460Y005174D01*
X016301Y005333D02*
X017509Y005333D01*
X017509Y005491D02*
X016143Y005491D01*
X017509Y005650D02*
X009648Y005650D01*
X009648Y005808D02*
X017509Y005808D01*
X017509Y005967D02*
X009648Y005967D01*
X009648Y006125D02*
X017509Y006125D01*
X017509Y006284D02*
X009648Y006284D01*
X009648Y006443D02*
X017509Y006443D01*
X017509Y006601D02*
X009648Y006601D01*
X009648Y006760D02*
X017509Y006760D01*
X017509Y006918D02*
X009648Y006918D01*
X009648Y007077D02*
X017509Y007077D01*
X017509Y007235D02*
X009770Y007235D01*
X009929Y007394D02*
X017524Y007394D01*
X017617Y007552D02*
X010087Y007552D01*
X010246Y007711D02*
X017776Y007711D01*
X017934Y007869D02*
X010404Y007869D01*
X010563Y008028D02*
X018093Y008028D01*
X018251Y008186D02*
X010721Y008186D01*
X010880Y008345D02*
X018410Y008345D01*
X019605Y009138D02*
X022149Y009138D01*
X022149Y009296D02*
X006401Y009296D01*
X006401Y009138D02*
X010519Y009138D01*
X010358Y008979D02*
X006401Y008979D01*
X006401Y008821D02*
X010224Y008821D01*
X010066Y008662D02*
X006401Y008662D01*
X006401Y008504D02*
X009907Y008504D01*
X009749Y008345D02*
X006401Y008345D01*
X006401Y008186D02*
X009590Y008186D01*
X009431Y008028D02*
X006401Y008028D01*
X006401Y007869D02*
X009273Y007869D01*
X009114Y007711D02*
X006401Y007711D01*
X006401Y007552D02*
X008956Y007552D01*
X009021Y007618D02*
X009021Y007618D01*
X008863Y007394D02*
X006401Y007394D01*
X006401Y007235D02*
X008848Y007235D01*
X008848Y007077D02*
X006401Y007077D01*
X006401Y006918D02*
X008848Y006918D01*
X008848Y006760D02*
X006401Y006760D01*
X006401Y006601D02*
X008848Y006601D01*
X008848Y006443D02*
X006401Y006443D01*
X006401Y006284D02*
X008848Y006284D01*
X008848Y006125D02*
X006401Y006125D01*
X006401Y005967D02*
X008848Y005967D01*
X008848Y005808D02*
X006401Y005808D01*
X006401Y005650D02*
X008848Y005650D01*
X008848Y005491D02*
X006401Y005491D01*
X006401Y005333D02*
X008848Y005333D01*
X008848Y005174D02*
X006401Y005174D01*
X006401Y005016D02*
X008848Y005016D01*
X008848Y004857D02*
X006401Y004857D01*
X006401Y004699D02*
X008766Y004699D01*
X008687Y004540D02*
X006401Y004540D01*
X006401Y004381D02*
X006704Y004381D01*
X006451Y004223D02*
X006401Y004223D01*
X007278Y004381D02*
X008654Y004381D01*
X008654Y004223D02*
X007531Y004223D01*
X007673Y004064D02*
X008719Y004064D01*
X008842Y003906D02*
X007739Y003906D01*
X007782Y003747D02*
X009126Y003747D01*
X009350Y003589D02*
X007782Y003589D01*
X007759Y003430D02*
X008890Y003430D01*
X008739Y003272D02*
X007693Y003272D01*
X007579Y003113D02*
X008673Y003113D01*
X008654Y002955D02*
X007394Y002955D01*
X006588Y002955D02*
X006401Y002955D01*
X006401Y003113D02*
X006403Y003113D01*
X006401Y002796D02*
X008668Y002796D01*
X008733Y002637D02*
X006401Y002637D01*
X006401Y002479D02*
X008877Y002479D01*
X009619Y002479D02*
X010269Y002479D01*
X010125Y002637D02*
X009763Y002637D01*
X009828Y002796D02*
X010060Y002796D01*
X010046Y002955D02*
X009842Y002955D01*
X010702Y002320D02*
X006401Y002320D01*
X006401Y002162D02*
X010860Y002162D01*
X010239Y001095D02*
X010160Y001135D01*
X010076Y001163D01*
X009992Y001176D01*
X009992Y000661D01*
X010507Y000661D01*
X010494Y000745D01*
X010466Y000829D01*
X010426Y000908D01*
X010374Y000980D01*
X010311Y001043D01*
X010239Y001095D01*
X010298Y001052D02*
X012194Y001052D01*
X012194Y001211D02*
X007694Y001211D01*
X007694Y001052D02*
X009590Y001052D01*
X009454Y000894D02*
X007672Y000894D01*
X007607Y000735D02*
X009392Y000735D01*
X009896Y000735D02*
X009992Y000735D01*
X009992Y000894D02*
X009896Y000894D01*
X009896Y001052D02*
X009992Y001052D01*
X010434Y000894D02*
X012216Y000894D01*
X012281Y000735D02*
X010495Y000735D01*
X009992Y000576D02*
X012412Y000576D01*
X012254Y001369D02*
X007634Y001369D01*
X007542Y001528D02*
X012346Y001528D01*
X012512Y001686D02*
X007376Y001686D01*
X006607Y001686D02*
X006401Y001686D01*
X006401Y001528D02*
X006440Y001528D01*
X007476Y000576D02*
X009896Y000576D01*
X010099Y004223D02*
X010117Y004223D01*
X010106Y004378D02*
X010602Y004378D01*
X010602Y004874D01*
X010598Y004874D01*
X010515Y004861D01*
X010435Y004835D01*
X010360Y004797D01*
X010292Y004748D01*
X010232Y004688D01*
X010183Y004620D01*
X010145Y004545D01*
X010119Y004465D01*
X010106Y004382D01*
X010106Y004378D01*
X010106Y004381D02*
X009842Y004381D01*
X009808Y004540D02*
X010143Y004540D01*
X010243Y004699D02*
X009730Y004699D01*
X009648Y004857D02*
X010502Y004857D01*
X010602Y004857D02*
X010678Y004857D01*
X010778Y004857D02*
X011772Y004857D01*
X011614Y004699D02*
X011037Y004699D01*
X011137Y004540D02*
X011455Y004540D01*
X011297Y004381D02*
X011174Y004381D01*
X010678Y004381D02*
X010602Y004381D01*
X010602Y004540D02*
X010678Y004540D01*
X010678Y004699D02*
X010602Y004699D01*
X009648Y005016D02*
X011931Y005016D01*
X012089Y005174D02*
X009648Y005174D01*
X009648Y005333D02*
X012248Y005333D01*
X012407Y005491D02*
X009648Y005491D01*
X006401Y009455D02*
X022149Y009455D01*
X022149Y009613D02*
X006401Y009613D01*
X006401Y009772D02*
X022149Y009772D01*
X022149Y009930D02*
X006401Y009930D01*
X006401Y010089D02*
X022149Y010089D01*
X022149Y010248D02*
X006401Y010248D01*
X006401Y010406D02*
X022149Y010406D01*
X022149Y010565D02*
X006401Y010565D01*
X006407Y010723D02*
X022143Y010723D01*
X022149Y008979D02*
X019766Y008979D01*
X019821Y008821D02*
X022149Y008821D01*
X022149Y008662D02*
X019815Y008662D01*
X019740Y008504D02*
X022149Y008504D01*
X022149Y001686D02*
X021943Y001686D01*
X022109Y001528D02*
X022149Y001528D01*
M02*
